<?xml version="1.0" encoding="UTF-8" standalone="no"?>
<!-- Created with Inkscape (http://www.inkscape.org/) -->

<svg
   xmlns:dc="http://purl.org/dc/elements/1.1/"
   xmlns:cc="http://creativecommons.org/ns#"
   xmlns:rdf="http://www.w3.org/1999/02/22-rdf-syntax-ns#"
   xmlns:svg="http://www.w3.org/2000/svg"
   xmlns="http://www.w3.org/2000/svg"
   xmlns:sodipodi="http://sodipodi.sourceforge.net/DTD/sodipodi-0.dtd"
   xmlns:inkscape="http://www.inkscape.org/namespaces/inkscape"
   width="6.5861168mm"
   height="6.5491214mm"
   viewBox="0 0 6.5861168 6.5491214"
   version="1.1"
   id="svg1586"
   inkscape:version="0.92.3 (2405546, 2018-03-11)"
   sodipodi:docname="favicon.svg">
  <defs
     id="defs1580">
    <clipPath
       clipPathUnits="userSpaceOnUse"
       id="clipPath36">
      <g
         transform="matrix(0.35277777,0,0,-0.35277777,-69.982665,25.414491)"
         id="g56">
        <g
           transform="matrix(0.53339509,0,0,0.53339509,154.93769,-28.424458)"
           id="g54">
          <path
             d="m 81.5596,145.512 h 0.0292 c 0.0362,-5.4703 11.8442,-18.9238 14.2534,-33.7626 1.4516,-8.9396 -7.6034,-14.3433 -9.5581,-20.2609 -2.5385,-7.6831 -0.9094,-7.1195 0.9266,-15.5211 -2.9083,3.2751 -4.7092,9.3807 -3.8273,13.7797 1.2543,6.2592 6.8643,9.8992 9.1304,14.8936 0.8991,1.9819 1.0309,4.9305 0.786,6.925 -1.2475,10.167 -12.2301,27.3319 -13.752,32.8978 0.6542,0.3532 1.3275,0.7027 2.0118,1.0485"
             style="fill:#ec6303;fill-opacity:1;fill-rule:evenodd;stroke:none"
             id="path38"
             inkscape:connector-curvature="0" />
          <path
             d="m 115.5679,130.0326 c 0.8249,3.6935 3.1941,9.9853 1.8244,9.9853 -3.89,-5.6157 -7.888,-19.3056 -5.1383,-28.0021 3.9327,-12.4389 7.3661,-14.1531 8.2834,-18.2514 1.0794,-4.8223 0.3384,-10.0222 -2.1121,-20.2592 1.9176,2.1594 4.3545,4.6791 5.1256,9.4632 0.7571,4.6976 -0.1248,11.6583 -1.0715,14.1415 -1.9483,5.11 -6.2368,9.6993 -7.8957,16.1628 -1.14,4.4416 -0.5771,9.7708 0.9842,16.7599"
             style="fill:#ec6303;fill-opacity:1;fill-rule:evenodd;stroke:none"
             id="path40"
             inkscape:connector-curvature="0" />
          <path
             d="m 98.1743,148.3089 c 0.8626,1.9724 2.4213,3.5448 5.4822,3.3676 1.0581,-0.0609 2.4644,-2.3649 1.6024,-2.874 -2.3386,-0.1591 -3.5198,-0.976 -4.2041,-1.7289 -0.841,-0.9249 -1.5825,-2.1311 -1.9029,-3.3352 -0.5193,-1.954 -0.6301,-4.7379 -0.4359,-7.7633 0.1,-1.5636 0.6573,-3.1082 1.0973,-4.7863 2.0092,-7.6623 9.1647,-22.0178 5.5057,-29.0205 -1.0562,-2.024 -1.8286,-1.1129 -1.5446,-0.5471 0.7943,1.5812 1.9117,4.9711 1.5474,7.4597 -1.1024,7.535 -5.1364,14.1516 -6.7155,19.3166 -1.6963,5.5486 -2.7494,14.6138 -0.432,19.9114"
             style="fill:#ec6303;fill-opacity:1;fill-rule:evenodd;stroke:none"
             id="path42"
             inkscape:connector-curvature="0" />
          <path
             d="m 101.0925,96.7861 c -2.9676,-5.1664 -3.6422,-6.6994 -3.888,-7.7422 -0.9008,-3.824 -0.2367,-7.3979 0.8136,-11.1175 -6.3604,4.1896 -4.2713,15.2884 3.0744,18.8597"
             style="fill:#ec6303;fill-opacity:1;fill-rule:evenodd;stroke:none"
             id="path44"
             inkscape:connector-curvature="0" />
          <path
             d="m 108.6454,156.6096 c 3.0989,0.2625 5.3816,0.6877 7.5059,0.8195 2.2088,0.1369 6.2782,0.01 7.6782,-1.9998 2.9886,-4.2914 3.1794,-18.5661 -4.714,-23.8419 3.8537,5.9726 6.7989,14.976 3.907,20.2632 -1.9151,3.5007 -7.7462,3.1325 -11.8854,2.9973 -2.5931,-0.0842 -6.6231,1.4117 -2.4917,1.7617"
             style="fill:#ec6303;fill-opacity:1;fill-rule:evenodd;stroke:none"
             id="path46"
             inkscape:connector-curvature="0" />
          <path
             d="m 80.4206,94.405 c 7.1277,0.6719 15.0117,2.0217 22.0649,3.5723 5.5457,1.2191 11.8876,2.9653 17.4336,4.1853 2.884,1.0208 5.7682,2.0421 8.6525,3.0628 6.0531,2.1425 5.2353,5.3782 -1.5823,5.6793 -3.7191,0.1638 -7.3732,0.3251 -11.0838,0.4892 l -0.7642,0.0338 0.6798,-1.7479 c 0.0552,-0.1423 0.3146,0.01 0.4844,0.0116 3.6547,0.0437 11.1617,-0.7727 11.2227,-1.7217 0.0873,-1.3683 -2.0617,-2.0651 -3.1454,-2.4126 -6.5191,-2.0911 -13.8758,-3.8837 -20.2889,-5.4998 -8.3625,-2.1951 -15.414,-3.177 -23.5942,-4.8628 -1.7686,-0.3643 -2.4324,-1.0106 -0.0791,-0.7895"
             style="fill:#23631e;fill-opacity:1;fill-rule:evenodd;stroke:none"
             id="path48"
             inkscape:connector-curvature="0" />
          <path
             d="m 93.5416,173.5367 c 2.3417,0.9142 5.7342,1.7167 7.8854,3.951 2.2825,2.3703 2.4596,6.722 2.2785,10.3612 8.3914,-0.8873 9.6956,-10.4522 9.3305,-16.2236 -0.7795,-12.3267 -15.4349,-17.9623 -22.0566,-21.5101 -5.0831,-2.645 -11.9736,-5.4306 -16.09,-8.557 -6.7508,-5.1267 -7.6768,-9.697 -7.5941,-12.7457 0.0754,-2.8063 0.4859,-3.7099 2.1773,-5.9794 3.0155,-4.0442 7.4682,-6.9125 12.2698,-8.5816 3.4549,-1.2007 7.9169,-1.5191 10.7288,-2.2892 0.5522,-0.1511 -0.0456,-1.476 -0.7843,-1.3836 -5.6081,0.7018 -11.8726,2.3417 -16.522,5.3541 -2.1881,1.419 -6.6563,5.5114 -8.3463,8.5847 -2.1215,3.8576 -0.6702,8.2766 0.9136,11.8142 1.2886,2.878 3.6861,5.4955 6.4241,7.4075 9.7773,6.2592 20.0815,8.716 28.5611,16.5169 4.3857,4.0351 7.0307,6.8899 7.5894,12.5748 0.2702,2.7496 0.1993,7.3386 -0.945,9.7764 -1.3425,2.8607 -4.3152,4.549 -4.1653,3.7945 0.9621,-4.8365 -1.377,-13.0286 -11.6549,-12.8651"
             style="fill:#23631e;fill-opacity:1;fill-rule:evenodd;stroke:none"
             id="path50"
             inkscape:connector-curvature="0" />
          <path
             d="M 101.0696,184.1318 C 83.9594,177.3281 86.239,166.3591 86.9349,161.6522 c 0.3285,-2.2244 0.3353,-2.0018 1.5919,-1.1407 0.1613,0.1109 0.3433,0.1888 0.5151,0.2832 5.2843,2.749 6.929,2.5464 12.2133,5.2954 6.4109,1.2302 6.6056,8.7718 7.276,12.6414 1.3748,-7.2303 0.2781,-9.8782 -3.9889,-13.8002 -2.5574,-2.3488 -9.7118,-3.549 -13.3234,-4.7971 -2.4749,-0.8549 -2.8304,-2.6773 -2.2791,-5.0388 -0.6562,0.4067 -1.1406,0.8747 -1.6143,1.5069 -2.8556,3.808 -3.8429,9.2384 -1.9641,16.0514 0.9119,3.31 3.6734,7.2774 6.6362,9.0043 3.306,1.9015 5.5392,1.9219 9.072,2.4738"
             style="fill:#23631e;fill-opacity:1;fill-rule:evenodd;stroke:none"
             id="path52"
             inkscape:connector-curvature="0" />
        </g>
      </g>
    </clipPath>
  </defs>
  <sodipodi:namedview
     id="base"
     pagecolor="#ffffff"
     bordercolor="#666666"
     borderopacity="1.0"
     inkscape:pageopacity="0.0"
     inkscape:pageshadow="2"
     inkscape:zoom="2.8"
     inkscape:cx="94.232359"
     inkscape:cy="-94.927084"
     inkscape:document-units="mm"
     inkscape:current-layer="layer4"
     showgrid="false"
     fit-margin-top="0"
     fit-margin-left="0"
     fit-margin-right="0"
     fit-margin-bottom="0"
     inkscape:window-width="1920"
     inkscape:window-height="1017"
     inkscape:window-x="-8"
     inkscape:window-y="-8"
     inkscape:window-maximized="1" />
  <metadata
     id="metadata1583">
    <rdf:RDF>
      <cc:Work
         rdf:about="">
        <dc:format>image/svg+xml</dc:format>
        <dc:type
           rdf:resource="http://purl.org/dc/dcmitype/StillImage" />
        <dc:title></dc:title>
      </cc:Work>
    </rdf:RDF>
  </metadata>
  <g
     inkscape:groupmode="layer"
     id="layer4"
     inkscape:label="Layer 2"
     transform="translate(-0.02846742,-0.09449347)">
    <rect
       style="fill:#808080;stroke-width:0.14989665"
       id="rect32"
       width="6.5861168"
       height="6.788331"
       x="0.028467422"
       y="-0.14471608"
       clip-path="url(#clipPath36)"
       inkscape:export-xdpi="96"
       inkscape:export-ydpi="96" />
  </g>
  <g
     inkscape:label="Layer 1"
     inkscape:groupmode="layer"
     id="layer1"
     transform="translate(-0.21843658,-0.26655094)" />
</svg>
