<?xml version="1.0" encoding="UTF-8" standalone="no"?>
<!-- Created with Inkscape (http://www.inkscape.org/) -->

<svg
   xmlns:dc="http://purl.org/dc/elements/1.1/"
   xmlns:cc="http://creativecommons.org/ns#"
   xmlns:rdf="http://www.w3.org/1999/02/22-rdf-syntax-ns#"
   xmlns:svg="http://www.w3.org/2000/svg"
   xmlns="http://www.w3.org/2000/svg"
   xmlns:xlink="http://www.w3.org/1999/xlink"
   xmlns:sodipodi="http://sodipodi.sourceforge.net/DTD/sodipodi-0.dtd"
   xmlns:inkscape="http://www.inkscape.org/namespaces/inkscape"
   width="17.953869mm"
   height="13.006321mm"
   viewBox="0 0 17.953869 13.006321"
   version="1.1"
   id="svg4484"
   inkscape:version="0.92.3 (2405546, 2018-03-11)"
   sodipodi:docname="logo_small.svg">
  <defs
     id="defs4478">
    <clipPath
       clipPathUnits="userSpaceOnUse"
       id="clipPath4551">
      <use
         x="0"
         y="0"
         xlink:href="#g4547"
         id="use4553"
         width="100%"
         height="100%" />
    </clipPath>
    <clipPath
       clipPathUnits="userSpaceOnUse"
       id="clipPath4559">
      <rect
         style="fill:#f4d7d7;stroke-width:0.75"
         id="rect4561"
         width="87.321434"
         height="80.089287"
         x="-36.06546"
         y="-380.58777"
         transform="scale(1,-1)" />
    </clipPath>
    <clipPath
       clipPathUnits="userSpaceOnUse"
       id="clipPath4565">
      <rect
         style="fill:#f4d7d7;stroke-width:0.75"
         id="rect4567"
         width="50.892857"
         height="36.964287"
         x="-20.282495"
         y="-337.19492"
         transform="scale(1,-1)" />
    </clipPath>
  </defs>
  <sodipodi:namedview
     id="base"
     pagecolor="#ffffff"
     bordercolor="#666666"
     borderopacity="1.0"
     inkscape:pageopacity="0.0"
     inkscape:pageshadow="2"
     inkscape:zoom="2.8"
     inkscape:cx="196.62552"
     inkscape:cy="-12.725981"
     inkscape:document-units="mm"
     inkscape:current-layer="layer1"
     showgrid="false"
     inkscape:window-width="1920"
     inkscape:window-height="1017"
     inkscape:window-x="-8"
     inkscape:window-y="-8"
     inkscape:window-maximized="1"
     fit-margin-top="0"
     fit-margin-left="0"
     fit-margin-right="0"
     fit-margin-bottom="0">
    <inkscape:grid
       type="xygrid"
       id="grid4536"
       originx="1.2356924"
       originy="-283.67113" />
  </sodipodi:namedview>
  <metadata
     id="metadata4481">
    <rdf:RDF>
      <cc:Work
         rdf:about="">
        <dc:format>image/svg+xml</dc:format>
        <dc:type
           rdf:resource="http://purl.org/dc/dcmitype/StillImage" />
        <dc:title></dc:title>
      </cc:Work>
    </rdf:RDF>
  </metadata>
  <g
     inkscape:label="Layer 1"
     inkscape:groupmode="layer"
     id="layer1"
     transform="translate(1.2356922,-0.32254768)">
    <g
       transform="matrix(0.35277777,0,0,-0.35277777,5.9195213,119.24356)"
       id="g4437"
       clip-path="url(#clipPath4565)">
      <path
         d="m 4.8754683,246.03614 c -2.9676,-5.1664 -3.6422,-6.6994 -3.88800002,-7.7422 -0.9008,-3.824 -0.2367,-7.3979 0.81360002,-11.1175 -6.3604,4.1896 -4.2713,15.2884 3.0744,18.8597"
         style="fill:#241c1c;fill-opacity:1;fill-rule:evenodd;stroke:none"
         id="path4445"
         inkscape:connector-curvature="0" />
      <g
         id="g4549"
         clip-path="url(#clipPath4551)">
        <g
           inkscape:label="Clip"
           id="g4547">
          <path
             inkscape:connector-curvature="0"
             id="path4439"
             style="fill:#241c1c;fill-opacity:1;fill-rule:evenodd;stroke:none"
             d="m -14.657432,294.76204 h 0.0292 c 0.0362,-5.4703 11.8442003,-18.9238 14.25340028,-33.7626 1.45160002,-8.9396 -7.60339998,-14.3433 -9.55809998,-20.2609 -2.5385003,-7.6831 -0.9094003,-7.1195 0.9266,-15.5211 -2.9083003,3.2751 -4.7092003,9.3807 -3.8273003,13.7797 1.2543,6.2592 6.8643003,9.8992 9.1304003,14.8936 0.8991,1.9819 1.0309,4.9305 0.786,6.925 -1.2475,10.167 -12.2301003,27.3319 -13.7520003,32.8978 0.6542,0.3532 1.3275,0.7027 2.0118,1.0485" />
          <path
             inkscape:connector-curvature="0"
             id="path4441"
             style="fill:#241c1c;fill-opacity:1;fill-rule:evenodd;stroke:none"
             d="m 19.350868,279.28264 c 0.8249,3.6935 3.1941,9.9853 1.8244,9.9853 -3.89,-5.6157 -7.888,-19.3056 -5.1383,-28.0021 3.9327,-12.4389 7.3661,-14.1531 8.2834,-18.2514 1.0794,-4.8223 0.3384,-10.0222 -2.1121,-20.2592 1.9176,2.1594 4.3545,4.6791 5.1256,9.4632 0.7571,4.6976 -0.1248,11.6583 -1.0715,14.1415 -1.9483,5.11 -6.2368,9.6993 -7.8957,16.1628 -1.14,4.4416 -0.5771,9.7708 0.9842,16.7599" />
          <path
             inkscape:connector-curvature="0"
             id="path4443"
             style="fill:#241c1c;fill-opacity:1;fill-rule:evenodd;stroke:none"
             d="m 1.9572683,297.55894 c 0.8626,1.9724 2.4213,3.5448 5.4822,3.3676 1.0581,-0.0609 2.4644,-2.3649 1.6024,-2.874 -2.3386,-0.1591 -3.5198,-0.976 -4.2041,-1.7289 -0.841,-0.9249 -1.5825,-2.1311 -1.9029,-3.3352 -0.5193,-1.954 -0.6301,-4.7379 -0.4359,-7.7633 0.1,-1.5636 0.6573,-3.1082 1.0973,-4.7863 2.0092,-7.6623 9.1646997,-22.0178 5.5057,-29.0205 -1.0562,-2.024 -1.8286,-1.1129 -1.5446,-0.5471 0.7943,1.5812 1.9117,4.9711 1.5474,7.4597 -1.1024,7.535 -5.1364,14.1516 -6.7155,19.3166 -1.69630002,5.5486 -2.74940002,14.6138 -0.432,19.9114" />
          <path
             inkscape:connector-curvature="0"
             id="path4447"
             style="fill:#241c1c;fill-opacity:1;fill-rule:evenodd;stroke:none"
             d="m 12.428368,305.85964 c 3.0989,0.2625 5.3816,0.6877 7.5059,0.8195 2.2088,0.1369 6.2782,0.01 7.6782,-1.9998 2.9886,-4.2914 3.1794,-18.5661 -4.714,-23.8419 3.8537,5.9726 6.7989,14.976 3.907,20.2632 -1.9151,3.5007 -7.7462,3.1325 -11.8854,2.9973 -2.5931,-0.0842 -6.6230997,1.4117 -2.4917,1.7617" />
          <path
             inkscape:connector-curvature="0"
             id="path4449"
             style="fill:#241c1c;fill-opacity:1;fill-rule:evenodd;stroke:none"
             d="m -15.796432,243.65504 c 7.1277003,0.6719 15.01170028,2.0217 22.0649003,3.5723 5.5456997,1.2191 11.8875997,2.9653 17.4335997,4.1853 2.884,1.0208 5.7682,2.0421 8.6525,3.0628 6.0531,2.1425 5.2353,5.3782 -1.5823,5.6793 -3.7191,0.1638 -7.3732,0.3251 -11.0838,0.4892 l -0.7642,0.0338 0.6798,-1.7479 c 0.0552,-0.1423 0.3146,0.01 0.4844,0.0116 3.6547,0.0437 11.1617,-0.7727 11.2227,-1.7217 0.0873,-1.3683 -2.0617,-2.0651 -3.1454,-2.4126 -6.5191,-2.0911 -13.8758,-3.8837 -20.2888997,-5.4998 -8.36250002,-2.1951 -15.414,-3.177 -23.5942003,-4.8628 -1.7686,-0.3643 -2.4324,-1.0106 -0.0791,-0.7895" />
          <path
             inkscape:connector-curvature="0"
             id="path4451"
             style="fill:#241c1c;fill-opacity:1;fill-rule:evenodd;stroke:none"
             d="m -2.6754317,322.78674 c 2.34169998,0.9142 5.7342,1.7167 7.8854,3.951 2.2825,2.3703 2.4596,6.722 2.2785,10.3612 8.3913997,-0.8873 9.6955997,-10.4522 9.3304997,-16.2236 -0.7795,-12.3267 -15.4348997,-17.9623 -22.0565997,-21.5101 -5.0831003,-2.645 -11.9736003,-5.4306 -16.0900003,-8.557 -6.7508,-5.1267 -7.6768,-9.697 -7.5941,-12.7457 0.0754,-2.8063 0.4859,-3.7099 2.1773,-5.9794 3.0155,-4.0442 7.4682,-6.9125 12.2698,-8.5816 3.4549,-1.2007 7.9169003,-1.5191 10.7288003,-2.2892 0.5522,-0.1511 -0.0456,-1.476 -0.7843,-1.3836 -5.6081003,0.7018 -11.8726003,2.3417 -16.5220003,5.3541 -2.1881,1.419 -6.6563,5.5114 -8.3463,8.5847 -2.1215,3.8576 -0.6702,8.2766 0.9136,11.8142 1.2886,2.878 3.6861,5.4955 6.4241,7.4075 9.7773,6.2592 20.0815003,8.716 28.5611003,16.5169 4.3856997,4.0351 7.0306997,6.8899 7.5893997,12.5748 0.2702,2.7496 0.1993,7.3386 -0.945,9.7764 -1.3425,2.8607 -4.3151997,4.549 -4.1652997,3.7945 0.9621,-4.8365 -1.377,-13.0286 -11.6549,-12.8651" />
        </g>
      </g>
      <path
         d="m 4.8525683,333.38184 c -17.1102003,-6.8037 -14.8306,-17.7727 -14.1347,-22.4796 0.3285,-2.2244 0.3353,-2.0018 1.5919,-1.1407 0.1613,0.1109 0.3433,0.1888 0.5151,0.2832 5.2843,2.749 6.92899998,2.5464 12.2133,5.2954 6.4108997,1.2302 6.6055997,8.7718 7.2759997,12.6414 1.3748,-7.2303 0.2781,-9.8782 -3.9888997,-13.8002 -2.5574,-2.3488 -9.7118,-3.549 -13.3234,-4.7971 -2.4749,-0.8549 -2.8304,-2.6773 -2.2791,-5.0388 -0.6562,0.4067 -1.1406,0.8747 -1.6143,1.5069 -2.8556003,3.808 -3.8429003,9.2384 -1.9641003,16.0514 0.9119003,3.31 3.6734003,7.2774 6.6362003,9.0043 3.30599998,1.9015 5.5392,1.9219 9.072,2.4738"
         style="fill:#28170b;fill-opacity:1;fill-rule:evenodd;stroke:none"
         id="path4453"
         inkscape:connector-curvature="0" />
    </g>
  </g>
  <g
     inkscape:groupmode="layer"
     id="layer2"
     inkscape:label="cutter"
     style="opacity:0.56400003"
     transform="translate(1.2356922,-0.32254768)" />
</svg>
