<?xml version="1.0" encoding="UTF-8" standalone="no"?>
<!-- Created with Inkscape (http://www.inkscape.org/) -->

<svg
   xmlns:dc="http://purl.org/dc/elements/1.1/"
   xmlns:cc="http://creativecommons.org/ns#"
   xmlns:rdf="http://www.w3.org/1999/02/22-rdf-syntax-ns#"
   xmlns:svg="http://www.w3.org/2000/svg"
   xmlns="http://www.w3.org/2000/svg"
   xmlns:sodipodi="http://sodipodi.sourceforge.net/DTD/sodipodi-0.dtd"
   xmlns:inkscape="http://www.inkscape.org/namespaces/inkscape"
   width="75.215302mm"
   height="21.588915mm"
   viewBox="0 0 75.215302 21.588915"
   version="1.1"
   id="svg1586"
   inkscape:version="0.92.3 (2405546, 2018-03-11)"
   sodipodi:docname="logo_black.svg">
  <defs
     id="defs1580" />
  <sodipodi:namedview
     id="base"
     pagecolor="#ffffff"
     bordercolor="#666666"
     borderopacity="1.0"
     inkscape:pageopacity="0.0"
     inkscape:pageshadow="2"
     inkscape:zoom="2.8"
     inkscape:cx="40.947096"
     inkscape:cy="61.559089"
     inkscape:document-units="mm"
     inkscape:current-layer="g1558"
     showgrid="false"
     fit-margin-top="0"
     fit-margin-left="0"
     fit-margin-right="0"
     fit-margin-bottom="0"
     inkscape:window-width="1920"
     inkscape:window-height="1017"
     inkscape:window-x="-8"
     inkscape:window-y="-8"
     inkscape:window-maximized="1" />
  <metadata
     id="metadata1583">
    <rdf:RDF>
      <cc:Work
         rdf:about="">
        <dc:format>image/svg+xml</dc:format>
        <dc:type
           rdf:resource="http://purl.org/dc/dcmitype/StillImage" />
        <dc:title />
      </cc:Work>
    </rdf:RDF>
  </metadata>
  <g
     inkscape:label="Layer 1"
     inkscape:groupmode="layer"
     id="layer1"
     transform="translate(-0.18996916,-0.17205747)">
    <g
       transform="matrix(0.35277777,0,0,-0.35277777,-4.2138263,25.492055)"
       id="g1558">
      <path
         d="m 16.7105,15.3221 c 0.0479,-0.0955 0.0938,-0.1959 0.1381,-0.3016 0.0439,-0.1057 0.0876,-0.2123 0.1315,-0.3163 0.0402,0.1085 0.0819,0.2162 0.1261,0.322 0.044,0.1057 0.0919,0.2061 0.1443,0.3016 l 2.914,5.2832 c 0.0477,0.0921 0.1021,0.1474 0.1599,0.1675 0.0578,0.0201 0.1381,0.0304 0.2418,0.0304 h 0.8575 v -8.5927 h -1.0194 v 6.3142 c 0,0.0839 0.002,0.1737 0.0057,0.2695 0.004,0.0958 0.0102,0.1942 0.0184,0.2937 L 17.4841,13.7208 C 17.3923,13.5414 17.2522,13.4512 17.064,13.4512 h -0.1675 c -0.188,0 -0.3277,0.0902 -0.4196,0.2696 l -3.0103,5.3909 c 0.0119,-0.1037 0.0218,-0.2057 0.0283,-0.3061 0.0057,-0.0995 0.0074,-0.1913 0.0074,-0.2752 v -6.3142 h -1.0191 v 8.5927 h 0.8572 c 0.104,0 0.184,-0.0103 0.2401,-0.0304 0.0561,-0.0201 0.1097,-0.0754 0.1619,-0.1675 z M 30.604,12.2162 h -0.8995 c -0.104,0 -0.1876,0.0258 -0.252,0.0779 -0.064,0.0516 -0.1119,0.118 -0.1434,0.1979 l -0.8039,2.0744 H 24.6495 L 23.8462,12.492 c -0.0238,-0.0717 -0.0698,-0.1361 -0.1378,-0.1922 -0.068,-0.0561 -0.1519,-0.0836 -0.252,-0.0836 H 22.557 l 3.4361,8.5927 h 1.1747 z m -5.6308,3.1898 h 3.2083 l -1.3493,3.496 c -0.0442,0.104 -0.0856,0.2236 -0.1279,0.3597 -0.0422,0.1361 -0.0858,0.2815 -0.1298,0.438 -0.0402,-0.1565 -0.0799,-0.3019 -0.1222,-0.44 -0.0416,-0.1377 -0.0856,-0.2599 -0.1298,-0.364 z m 8.0952,1.637 2.3085,1.1756 v -0.7855 c 0,-0.1324 -0.0561,-0.22 -0.168,-0.2639 l -2.1405,-1.1158 v -2.8598 h 3.7176 v -0.9774 h -4.8747 v 3.3157 l -1.1214,-0.5695 v 0.8033 c 0,0.112 0.0479,0.1902 0.1437,0.2336 l 0.9777,0.5159 v 4.2937 h 1.1571 z m 11.5784,-3.9934 c -0.4314,-0.3118 -0.8912,-0.5437 -1.3808,-0.6973 -0.4901,-0.1545 -1.0272,-0.2319 -1.6112,-0.2319 -0.6916,0 -1.3152,0.1077 -1.8708,0.3217 -0.5556,0.2137 -1.0293,0.5134 -1.423,0.8989 -0.3938,0.3863 -0.6973,0.8481 -0.9097,1.3873 -0.2117,0.5397 -0.3174,1.1338 -0.3174,1.7812 0,0.6551 0.104,1.253 0.3098,1.793 0.2055,0.5391 0.4977,1.0034 0.8776,1.3889 0.3793,0.3855 0.841,0.6835 1.3844,0.8958 0.5437,0.2114 1.1517,0.3175 1.823,0.3175 0.3402,0 0.6559,-0.0241 0.9476,-0.0737 0.2917,-0.0505 0.5618,-0.1222 0.8093,-0.2163 0.2483,-0.0938 0.4782,-0.2078 0.69,-0.3419 0.2114,-0.1335 0.4093,-0.2854 0.5933,-0.4535 l -0.3294,-0.5278 c -0.0525,-0.0794 -0.118,-0.1299 -0.1999,-0.152 -0.0825,-0.0221 -0.1743,-0.0037 -0.2738,0.0562 -0.0964,0.0561 -0.2061,0.1241 -0.3302,0.204 -0.1233,0.08 -0.2733,0.1574 -0.4516,0.2319 -0.1777,0.0737 -0.3875,0.1361 -0.6293,0.1877 -0.2421,0.0521 -0.5298,0.0779 -0.8617,0.0779 -0.4839,0 -0.9216,-0.0779 -1.3136,-0.2361 -0.3912,-0.1576 -0.7248,-0.3835 -1.0009,-0.6772 -0.2758,-0.2942 -0.4876,-0.6494 -0.6355,-1.0678 -0.148,-0.4175 -0.2217,-0.8867 -0.2217,-1.4066 0,-0.5397 0.0774,-1.0216 0.2319,-1.4473 0.1536,-0.4252 0.3733,-0.7875 0.6593,-1.0854 0.2855,-0.2974 0.6313,-0.5256 1.0395,-0.6817 0.4076,-0.1557 0.8654,-0.2336 1.3731,-0.2336 0.1998,0 0.3875,0.0119 0.5612,0.0357 0.1741,0.0241 0.3402,0.0581 0.4998,0.1003 0.1599,0.0423 0.3143,0.0939 0.4617,0.1557 0.148,0.0623 0.298,0.1321 0.4496,0.2123 v 1.8947 h -1.3365 c -0.0763,0 -0.1361,0.0221 -0.1823,0.0654 -0.0459,0.0443 -0.0697,0.0984 -0.0697,0.1625 v 0.6596 h 2.6379 z m 9.7197,3.4599 c 0,-0.6437 -0.102,-1.2333 -0.3053,-1.7713 -0.2041,-0.5372 -0.4921,-1.0009 -0.8637,-1.389 -0.3716,-0.3872 -0.8178,-0.6871 -1.3394,-0.9014 -0.5215,-0.2135 -1.099,-0.3218 -1.7308,-0.3218 -0.6313,0 -1.207,0.1083 -1.7266,0.3218 -0.5198,0.2143 -0.9657,0.5142 -1.3374,0.9014 -0.3716,0.3881 -0.6596,0.8518 -0.8637,1.389 -0.2035,0.538 -0.3056,1.1276 -0.3056,1.7713 0,0.6432 0.1021,1.2354 0.3056,1.7728 0.2041,0.5378 0.4921,1.0015 0.8637,1.3907 0.3717,0.3901 0.8176,0.6917 1.3374,0.9077 0.5196,0.2162 1.0953,0.324 1.7266,0.324 0.6318,0 1.2093,-0.1078 1.7308,-0.324 0.5216,-0.216 0.9678,-0.5176 1.3394,-0.9077 0.3716,-0.3892 0.6596,-0.8529 0.8637,-1.3907 0.2033,-0.5374 0.3053,-1.1296 0.3053,-1.7728 z m -1.1931,0 c 0,0.5273 -0.0717,1.001 -0.216,1.4213 -0.1434,0.4196 -0.3475,0.7753 -0.6117,1.065 -0.2639,0.29 -0.5831,0.5117 -0.9592,0.6679 -0.3754,0.1556 -0.7957,0.2335 -1.2592,0.2335 -0.4598,0 -0.8776,-0.0779 -1.2529,-0.2335 -0.3762,-0.1562 -0.6956,-0.3779 -0.9612,-0.6679 -0.2659,-0.2897 -0.472,-0.6454 -0.6163,-1.065 -0.1434,-0.4203 -0.2154,-0.894 -0.2154,-1.4213 0,-0.5278 0.072,-0.9995 0.2154,-1.4173 0.1443,-0.4175 0.3504,-0.7716 0.6163,-1.0613 0.2656,-0.2897 0.585,-0.5116 0.9612,-0.6658 0.3753,-0.1537 0.7931,-0.2319 1.2529,-0.2319 0.4635,0 0.8838,0.0782 1.2592,0.2319 0.3761,0.1542 0.6953,0.3761 0.9592,0.6658 0.2642,0.2897 0.4683,0.6438 0.6117,1.0613 0.1443,0.4178 0.216,0.8895 0.216,1.4173 z m 4.0116,-0.7081 v -3.5852 h -1.1574 v 8.5927 h 2.4285 c 0.5436,0 1.0136,-0.0542 1.4091,-0.1639 0.3957,-0.1103 0.7237,-0.2701 0.9813,-0.4782 0.2577,-0.2078 0.4479,-0.4572 0.5721,-0.7515 0.1235,-0.2933 0.1859,-0.6236 0.1859,-0.987 0,-0.3041 -0.0485,-0.5876 -0.1443,-0.8515 -0.0958,-0.2639 -0.2338,-0.4998 -0.4158,-0.7095 -0.182,-0.2104 -0.4037,-0.3898 -0.6653,-0.5397 -0.2619,-0.15 -0.5599,-0.262 -0.8918,-0.334 0.1525,-0.0958 0.2804,-0.2179 0.3841,-0.3659 l 2.5067,-3.4115 h -1.0318 c -0.2118,0 -0.368,0.0816 -0.4675,0.2455 l -2.2305,3.0702 c -0.0681,0.0958 -0.1401,0.1658 -0.218,0.208 -0.0783,0.0423 -0.1999,0.0615 -0.3643,0.0615 z m 0,0.8462 h 1.2232 c 0.3359,0 0.6338,0.0417 0.8915,0.1233 0.2573,0.0819 0.4736,0.1979 0.6474,0.3478 0.1738,0.15 0.3041,0.3283 0.3917,0.536 0.0882,0.2081 0.1324,0.438 0.1324,0.6891 0,0.5123 -0.1681,0.8978 -0.504,1.158 -0.3356,0.2594 -0.8396,0.3892 -1.5111,0.3892 H 57.185 Z m 12.0881,4.1613 v -0.4323 c 0,-0.1316 -0.0397,-0.2594 -0.1197,-0.3836 l -4.8693,-6.8295 h 4.9173 v -0.9473 h -6.4398 v 0.4552 c 0,0.0644 0.0119,0.1242 0.0335,0.1803 0.0218,0.0561 0.0484,0.1103 0.0799,0.1619 l 4.8693,6.8479 h -4.7554 v 0.9474 z m 8.473,-8.5927 h -0.8994 c -0.1041,0 -0.1877,0.0258 -0.252,0.0779 -0.0644,0.0516 -0.1123,0.118 -0.1437,0.1979 l -0.8037,2.0744 H 71.7914 L 70.9883,12.492 c -0.0238,-0.0717 -0.07,-0.1361 -0.138,-0.1922 -0.0681,-0.0561 -0.1517,-0.0836 -0.2517,-0.0836 h -0.8998 l 3.4362,8.5927 h 1.175 z m -5.6307,3.1898 h 3.2079 l -1.3493,3.496 c -0.0439,0.104 -0.0856,0.2236 -0.1278,0.3597 -0.0422,0.1361 -0.0856,0.2815 -0.1295,0.438 -0.0406,-0.1565 -0.0803,-0.3019 -0.1225,-0.44 -0.0414,-0.1377 -0.0856,-0.2599 -0.1295,-0.364 z m 11.7289,5.4029 v -0.9777 h -2.7822 v -7.615 H 79.905 v 7.615 h -2.7882 v 0.9777 z m 7.4174,-8.5927 h -0.8994 c -0.1041,0 -0.1877,0.0258 -0.252,0.0779 -0.0644,0.0516 -0.1123,0.118 -0.1437,0.1979 l -0.8037,2.0744 H 85.307 L 84.5039,12.492 c -0.0238,-0.0717 -0.07,-0.1361 -0.138,-0.1922 -0.0681,-0.0561 -0.1517,-0.0836 -0.2518,-0.0836 h -0.8997 l 3.4362,8.5927 h 1.1749 z M 85.631,15.406 h 3.2079 l -1.3493,3.496 c -0.0439,0.104 -0.0856,0.2236 -0.1278,0.3597 -0.0422,0.1361 -0.0856,0.2815 -0.1295,0.438 -0.0406,-0.1565 -0.0803,-0.3019 -0.1225,-0.44 -0.0414,-0.1377 -0.0856,-0.2599 -0.1295,-0.364 z m 10.5893,1.637 h 0.438 c 0.1517,0 0.2741,0.0204 0.366,0.0581 0.0918,0.0377 0.1757,0.1021 0.2514,0.1939 l 2.8604,3.238 c 0.08,0.1038 0.1639,0.1758 0.252,0.216 0.0876,0.0397 0.1959,0.0599 0.3237,0.0599 h 0.9834 l -3.2738,-3.6995 c -0.0799,-0.0964 -0.1561,-0.1747 -0.2298,-0.2365 -0.0743,-0.0615 -0.1545,-0.1139 -0.2382,-0.1536 0.1078,-0.0357 0.2058,-0.0882 0.2943,-0.1582 0.0873,-0.0697 0.1737,-0.1618 0.2574,-0.2738 l 3.418,-4.0711 h -1.0072 c -0.0762,0 -0.1406,0.0062 -0.1941,0.0156 -0.0542,0.0102 -0.1021,0.0263 -0.1423,0.0485 -0.0397,0.0215 -0.0737,0.0479 -0.1038,0.0776 -0.0297,0.0301 -0.0601,0.0641 -0.0876,0.1038 l -2.9625,3.4123 c -0.0793,0.0995 -0.1658,0.1712 -0.2576,0.2135 -0.0922,0.0422 -0.2319,0.0618 -0.4196,0.0618 h -0.5281 v -3.9331 h -1.1571 v 8.5927 h 1.1571 z m 13.7742,-4.8268 h -0.8998 c -0.1037,0 -0.1876,0.0258 -0.252,0.0779 -0.064,0.0516 -0.1119,0.118 -0.1434,0.1979 l -0.8039,2.0744 h -3.8557 l -0.803,-2.0744 c -0.0241,-0.0717 -0.0701,-0.1361 -0.1381,-0.1922 -0.068,-0.0561 -0.1519,-0.0836 -0.252,-0.0836 h -0.8994 l 3.4361,8.5927 h 1.1747 z m -5.6311,3.1898 h 3.2083 l -1.3493,3.496 c -0.0442,0.104 -0.0856,0.2236 -0.1278,0.3597 -0.0423,0.1361 -0.0857,0.2815 -0.1299,0.438 -0.0402,-0.1565 -0.0799,-0.3019 -0.1221,-0.44 -0.0417,-0.1377 -0.0857,-0.2599 -0.1299,-0.364 z m 7.9215,0.3954 v -3.5852 h -1.1574 v 8.5927 h 2.4284 c 0.5437,0 1.0137,-0.0542 1.4091,-0.1639 0.3957,-0.1103 0.7237,-0.2701 0.9814,-0.4782 0.2576,-0.2078 0.4478,-0.4572 0.572,-0.7515 0.1236,-0.2933 0.1859,-0.6236 0.1859,-0.987 0,-0.3041 -0.0484,-0.5876 -0.1442,-0.8515 -0.0958,-0.2639 -0.2339,-0.4998 -0.4159,-0.7095 -0.182,-0.2104 -0.4036,-0.3898 -0.6653,-0.5397 -0.2619,-0.15 -0.5598,-0.262 -0.8918,-0.334 0.1526,-0.0958 0.2804,-0.2179 0.3841,-0.3659 l 2.5067,-3.4115 h -1.0318 c -0.2117,0 -0.3679,0.0816 -0.4674,0.2455 l -2.2306,3.0702 c -0.068,0.0958 -0.14,0.1658 -0.218,0.208 -0.0782,0.0423 -0.1998,0.0615 -0.3642,0.0615 z m 0,0.8462 h 1.2231 c 0.3359,0 0.6338,0.0417 0.8915,0.1233 0.2574,0.0819 0.4737,0.1979 0.6474,0.3478 0.1738,0.15 0.3042,0.3283 0.3918,0.536 0.0881,0.2081 0.1324,0.438 0.1324,0.6891 0,0.5123 -0.1681,0.8978 -0.504,1.158 -0.3357,0.2594 -0.8397,0.3892 -1.5112,0.3892 h -1.271 z m 14.1925,-0.1381 c 0,-0.6437 -0.1021,-1.2333 -0.3053,-1.7713 -0.2041,-0.5372 -0.4921,-1.0009 -0.8638,-1.389 -0.3716,-0.3872 -0.8175,-0.6871 -1.339,-0.9014 -0.5216,-0.2135 -1.0993,-0.3218 -1.7312,-0.3218 -0.6312,0 -1.207,0.1083 -1.7265,0.3218 -0.5199,0.2143 -0.9658,0.5142 -1.3374,0.9014 -0.3716,0.3881 -0.6596,0.8518 -0.8637,1.389 -0.2033,0.538 -0.3053,1.1276 -0.3053,1.7713 0,0.6432 0.102,1.2354 0.3053,1.7728 0.2041,0.5378 0.4921,1.0015 0.8637,1.3907 0.3716,0.3901 0.8175,0.6917 1.3374,0.9077 0.5195,0.2162 1.0953,0.324 1.7265,0.324 0.6319,0 1.2096,-0.1078 1.7312,-0.324 0.5215,-0.216 0.9674,-0.5176 1.339,-0.9077 0.3717,-0.3892 0.6597,-0.8529 0.8638,-1.3907 0.2032,-0.5374 0.3053,-1.1296 0.3053,-1.7728 z m -1.1929,0 c 0,0.5273 -0.072,1.001 -0.2162,1.4213 -0.1435,0.4196 -0.3476,0.7753 -0.6115,1.065 -0.2642,0.29 -0.5834,0.5117 -0.9595,0.6679 -0.3753,0.1556 -0.7957,0.2335 -1.2592,0.2335 -0.4597,0 -0.8776,-0.0779 -1.2529,-0.2335 -0.3761,-0.1562 -0.6953,-0.3779 -0.9612,-0.6679 -0.2659,-0.2897 -0.472,-0.6454 -0.6163,-1.065 -0.1434,-0.4203 -0.2154,-0.894 -0.2154,-1.4213 0,-0.5278 0.072,-0.9995 0.2154,-1.4173 0.1443,-0.4175 0.3504,-0.7716 0.6163,-1.0613 0.2659,-0.2897 0.5851,-0.5116 0.9612,-0.6658 0.3753,-0.1537 0.7932,-0.2319 1.2529,-0.2319 0.4635,0 0.8839,0.0782 1.2592,0.2319 0.3761,0.1542 0.6953,0.3761 0.9595,0.6658 0.2639,0.2897 0.468,0.6438 0.6115,1.0613 0.1442,0.4178 0.2162,0.8895 0.2162,1.4173 z m 4.0113,-3.3159 h 3.7177 v -0.9774 h -4.875 v 8.5927 h 1.1573 z m 11.9866,-0.9774 h -0.8994 c -0.104,0 -0.1877,0.0258 -0.252,0.0779 -0.0644,0.0516 -0.112,0.118 -0.1437,0.1979 l -0.8036,2.0744 h -3.8557 l -0.8034,-2.0744 c -0.0238,-0.0717 -0.0697,-0.1361 -0.1377,-0.1922 -0.0681,-0.0561 -0.152,-0.0836 -0.252,-0.0836 h -0.8998 l 3.4365,8.5927 h 1.1747 z m -5.6307,3.1898 h 3.2082 l -1.3493,3.496 c -0.0442,0.104 -0.0858,0.2236 -0.1278,0.3597 -0.0422,0.1361 -0.0859,0.2815 -0.1298,0.438 -0.0403,-0.1565 -0.08,-0.3019 -0.1222,-0.44 -0.0417,-0.1377 -0.0859,-0.2599 -0.1298,-0.364 z m 7.9211,1.637 h 0.438 c 0.1516,0 0.2738,0.0204 0.3659,0.0581 0.0919,0.0377 0.1758,0.1021 0.2515,0.1939 l 2.8604,3.238 c 0.0799,0.1038 0.1636,0.1758 0.252,0.216 0.0873,0.0397 0.1959,0.0599 0.3237,0.0599 h 0.9834 l -3.2738,-3.6995 c -0.0799,-0.0964 -0.1562,-0.1747 -0.2299,-0.2365 -0.0745,-0.0615 -0.1545,-0.1139 -0.2381,-0.1536 0.1077,-0.0357 0.2058,-0.0882 0.294,-0.1582 0.0876,-0.0697 0.174,-0.1618 0.2576,-0.2738 l 3.4181,-4.0711 h -1.0072 c -0.0762,0 -0.1406,0.0062 -0.1942,0.0156 -0.0541,0.0102 -0.102,0.0263 -0.1423,0.0485 -0.0396,0.0215 -0.0737,0.0479 -0.104,0.0776 -0.0295,0.0301 -0.0598,0.0641 -0.0873,0.1038 l -2.9628,3.4123 c -0.0793,0.0995 -0.1655,0.1712 -0.2574,0.2135 -0.0921,0.0422 -0.2318,0.0618 -0.4195,0.0618 h -0.5281 v -3.9331 h -1.1571 v 8.5927 h 1.1571 z m 12.3106,-4.8268 c -0.1208,0 -0.1979,0.0589 -0.2293,0.1769 l -0.0768,0.5876 c -0.2073,-0.252 -0.4428,-0.4521 -0.7087,-0.6041 -0.2665,-0.1511 -0.572,-0.2273 -0.9159,-0.2273 -0.2778,0 -0.5292,0.0541 -0.7551,0.1607 -0.2262,0.1069 -0.419,0.2634 -0.5783,0.4697 -0.1596,0.2075 -0.2823,0.4657 -0.3685,0.775 -0.0859,0.3087 -0.1287,0.6639 -0.1287,1.0658 0,0.3566 0.0473,0.6897 0.1432,0.9973 0.0958,0.3072 0.2324,0.5731 0.4113,0.7993 0.1783,0.2268 0.398,0.4048 0.6576,0.5341 0.2594,0.1292 0.5511,0.1927 0.8762,0.1927 0.2968,0 0.551,-0.0499 0.7634,-0.1499 0.2117,-0.1001 0.3999,-0.2418 0.5658,-0.4238 v 2.6858 h 0.8504 v -7.0398 z m -1.6534,0.6211 c 0.2803,0 0.5252,0.064 0.7344,0.1913 0.2086,0.1273 0.3994,0.3076 0.5752,0.54 v 2.3374 c -0.1593,0.2098 -0.3314,0.3586 -0.5165,0.4442 -0.1845,0.0862 -0.392,0.1293 -0.6211,0.1293 -0.4493,0 -0.7951,-0.1607 -1.0375,-0.4827 -0.242,-0.3218 -0.3628,-0.781 -0.3628,-1.3763 0,-0.3157 0.0269,-0.5853 0.0811,-0.8095 0.0541,-0.2248 0.1335,-0.4094 0.2386,-0.5542 0.1055,-0.1457 0.2345,-0.252 0.3875,-0.3189 0.1525,-0.0675 0.3263,-0.1006 0.5211,-0.1006 z m 4.4061,4.2205 v -4.8416 h -0.8504 v 4.8416 z m 0.1823,1.5199 c 0,-0.0833 -0.0164,-0.1593 -0.0499,-0.2313 -0.0334,-0.0717 -0.0782,-0.1355 -0.1335,-0.1908 -0.0561,-0.0561 -0.121,-0.1009 -0.1959,-0.1324 -0.0751,-0.032 -0.155,-0.0479 -0.2375,-0.0479 -0.0831,0 -0.1593,0.0159 -0.2313,0.0479 -0.0717,0.0315 -0.1352,0.0763 -0.1894,0.1324 -0.0544,0.0553 -0.0972,0.1191 -0.1292,0.1908 -0.0315,0.072 -0.048,0.148 -0.048,0.2313 0,0.0825 0.0165,0.1624 0.048,0.2375 0.032,0.0749 0.0748,0.1398 0.1292,0.1959 0.0542,0.0553 0.1177,0.0989 0.1894,0.1304 0.072,0.032 0.1482,0.0479 0.2313,0.0479 0.0825,0 0.1624,-0.0159 0.2375,-0.0479 0.0749,-0.0315 0.1398,-0.0751 0.1959,-0.1304 0.0553,-0.0561 0.1001,-0.121 0.1335,-0.1959 0.0335,-0.0751 0.0499,-0.155 0.0499,-0.2375 z m 3.1975,-1.4431 c 0.2897,0 0.5587,-0.0479 0.8056,-0.1457 0.2469,-0.097 0.4603,-0.2367 0.6406,-0.4201 0.18,-0.1834 0.32,-0.4093 0.4221,-0.6789 0.102,-0.269 0.1531,-0.5766 0.1531,-0.921 0,-0.1335 -0.0145,-0.2231 -0.0428,-0.2673 -0.0292,-0.0445 -0.0834,-0.0672 -0.1628,-0.0672 h -3.2357 c 0.006,-0.3055 0.0479,-0.572 0.1239,-0.7982 0.0771,-0.2262 0.1822,-0.4139 0.3158,-0.5655 0.134,-0.1514 0.2933,-0.2648 0.4779,-0.339 0.1848,-0.0749 0.392,-0.1134 0.6213,-0.1134 0.2135,0 0.3986,0.0252 0.5531,0.0748 0.1542,0.0493 0.2866,0.102 0.398,0.1596 0.1114,0.0573 0.206,0.1114 0.2803,0.1604 0.0748,0.0499 0.1386,0.0737 0.1928,0.0737 0.0705,0 0.1247,-0.0269 0.1624,-0.081 l 0.2395,-0.3113 c -0.1052,-0.1273 -0.2313,-0.237 -0.3781,-0.3314 -0.146,-0.0938 -0.3022,-0.172 -0.4697,-0.2324 -0.167,-0.0604 -0.341,-0.1052 -0.5191,-0.1355 -0.1791,-0.03 -0.3554,-0.0459 -0.5306,-0.0459 -0.3351,0 -0.6423,0.0573 -0.9241,0.1701 -0.282,0.1134 -0.5258,0.2789 -0.7313,0.4969 -0.2058,0.2185 -0.3666,0.4875 -0.4811,0.8096 -0.1148,0.3217 -0.172,0.6916 -0.172,1.1092 0,0.3376 0.0521,0.6533 0.1561,0.9462 0.1035,0.2928 0.2515,0.5479 0.4459,0.7628 0.1942,0.2154 0.4318,0.3843 0.7121,0.5071 0.2801,0.1222 0.5958,0.1834 0.9468,0.1834 z m 0.0187,-0.6262 c -0.4113,0 -0.7345,-0.1185 -0.97,-0.3555 -0.2362,-0.2372 -0.3824,-0.5675 -0.4397,-0.9881 h 2.6476 c 0,0.1978 -0.0272,0.3793 -0.0825,0.5437 -0.0561,0.1635 -0.1375,0.3061 -0.2438,0.4252 -0.1071,0.1196 -0.2375,0.212 -0.3906,0.2769 -0.1531,0.0655 -0.3263,0.0978 -0.521,0.0978 z m 4.4838,-4.3685 c -0.3824,0 -0.6758,0.1063 -0.8813,0.3201 -0.2052,0.2134 -0.3092,0.5207 -0.3092,0.9221 v 2.9636 h -0.5828 c -0.0511,0 -0.0944,0.0159 -0.129,0.0462 -0.0354,0.0301 -0.053,0.0763 -0.053,0.1403 v 0.339 l 0.7937,0.1007 0.1959,1.4955 c 0.01,0.0479 0.0314,0.0882 0.0654,0.1185 0.0335,0.0301 0.0763,0.044 0.1304,0.044 h 0.4303 V 16.962 h 1.4003 v -0.6163 h -1.4003 v -2.9064 c 0,-0.2035 0.0494,-0.3551 0.148,-0.4535 0.0989,-0.0989 0.2262,-0.1485 0.3824,-0.1485 0.0896,0 0.1675,0.013 0.2324,0.0371 0.0655,0.0232 0.1216,0.049 0.169,0.0774 0.0479,0.0289 0.0893,0.0561 0.1227,0.0799 0.0335,0.0241 0.0624,0.0354 0.0876,0.0354 0.0448,0 0.0845,-0.0272 0.1196,-0.0813 l 0.2484,-0.4062 c -0.1463,-0.1375 -0.3232,-0.2438 -0.5304,-0.322 -0.2072,-0.078 -0.4201,-0.1177 -0.6401,-0.1177 z m 3.9237,4.9947 c 0.2897,0 0.5588,-0.0479 0.8056,-0.1457 0.2472,-0.097 0.4607,-0.2367 0.6407,-0.4201 0.1803,-0.1834 0.32,-0.4093 0.4221,-0.6789 0.102,-0.269 0.153,-0.5766 0.153,-0.921 0,-0.1335 -0.0144,-0.2231 -0.0428,-0.2673 -0.0289,-0.0445 -0.083,-0.0672 -0.1624,-0.0672 h -3.236 c 0.006,-0.3055 0.0479,-0.572 0.1241,-0.7982 0.0768,-0.2262 0.182,-0.4139 0.3155,-0.5655 0.1344,-0.1514 0.2937,-0.2648 0.4782,-0.339 0.1846,-0.0749 0.3918,-0.1134 0.6211,-0.1134 0.2137,0 0.3988,0.0252 0.553,0.0748 0.1545,0.0493 0.2866,0.102 0.3983,0.1596 0.1114,0.0573 0.2058,0.1114 0.2804,0.1604 0.0748,0.0499 0.1386,0.0737 0.1927,0.0737 0.0706,0 0.1247,-0.0269 0.1624,-0.081 l 0.2393,-0.3113 c -0.1052,-0.1273 -0.231,-0.237 -0.3779,-0.3314 -0.146,-0.0938 -0.3024,-0.172 -0.47,-0.2324 -0.1669,-0.0604 -0.3407,-0.1052 -0.519,-0.1355 -0.1789,-0.03 -0.3552,-0.0459 -0.5304,-0.0459 -0.335,0 -0.6426,0.0573 -0.924,0.1701 -0.2821,0.1134 -0.5259,0.2789 -0.7314,0.4969 -0.2061,0.2185 -0.3665,0.4875 -0.4813,0.8096 -0.1145,0.3217 -0.1718,0.6916 -0.1718,1.1092 0,0.3376 0.0522,0.6533 0.1562,0.9462 0.1032,0.2928 0.2512,0.5479 0.4459,0.7628 0.1942,0.2154 0.4314,0.3843 0.7118,0.5071 0.2803,0.1222 0.5958,0.1834 0.9467,0.1834 z m 0.019,-0.6262 c -0.4113,0 -0.7344,-0.1185 -0.97,-0.3555 -0.2364,-0.2372 -0.3824,-0.5675 -0.4396,-0.9881 h 2.6475 c 0,0.1978 -0.0272,0.3793 -0.0827,0.5437 -0.0559,0.1635 -0.1372,0.3061 -0.2438,0.4252 -0.1069,0.1196 -0.2373,0.212 -0.3904,0.2769 -0.153,0.0655 -0.3262,0.0978 -0.521,0.0978 z m 4.4839,-4.3685 c -0.3824,0 -0.6761,0.1063 -0.8813,0.3201 -0.2055,0.2134 -0.3093,0.5207 -0.3093,0.9221 v 2.9636 h -0.5828 c -0.051,0 -0.0944,0.0159 -0.129,0.0462 -0.0354,0.0301 -0.053,0.0763 -0.053,0.1403 v 0.339 l 0.7937,0.1007 0.1959,1.4955 c 0.009,0.0479 0.0315,0.0882 0.0655,0.1185 0.0334,0.0301 0.0762,0.044 0.1304,0.044 h 0.4303 V 16.962 h 1.4003 v -0.6163 h -1.4003 v -2.9064 c 0,-0.2035 0.049,-0.3551 0.148,-0.4535 0.0989,-0.0989 0.2262,-0.1485 0.3823,-0.1485 0.0896,0 0.1676,0.013 0.2325,0.0371 0.0655,0.0232 0.1216,0.049 0.1689,0.0774 0.0477,0.0289 0.0893,0.0561 0.1228,0.0799 0.0334,0.0241 0.0623,0.0354 0.0876,0.0354 0.0448,0 0.0844,-0.0272 0.1196,-0.0813 l 0.2483,-0.4062 c -0.1463,-0.1375 -0.3231,-0.2438 -0.5306,-0.322 -0.2073,-0.078 -0.4201,-0.1177 -0.6398,-0.1177 z m 3.4166,-1.3532 c -0.0284,-0.0635 -0.0635,-0.1145 -0.1066,-0.1522 -0.0428,-0.0386 -0.11,-0.0582 -0.199,-0.0582 h -0.631 l 0.8844,1.9219 -1.9981,4.5596 h 0.7361 c 0.0732,0 0.1324,-0.0179 0.1752,-0.0545 0.0428,-0.0362 0.072,-0.0779 0.0876,-0.1227 l 1.2952,-3.0487 c 0.0257,-0.0737 0.0498,-0.1437 0.0717,-0.2123 0.0226,-0.0689 0.0416,-0.14 0.0575,-0.2137 0.0414,0.1437 0.0893,0.2874 0.1434,0.4303 l 1.2569,3.0444 c 0.0193,0.051 0.0528,0.0944 0.0987,0.1278 0.0462,0.0335 0.0972,0.0494 0.1545,0.0494 h 0.674 z m 4.3067,8.4693 v -4.1437 h 0.2199 c 0.0635,0 0.1177,0.0097 0.1607,0.0273 0.0434,0.0175 0.0882,0.0521 0.1353,0.1063 l 1.5295,1.6398 c 0.0448,0.0541 0.0927,0.0969 0.1423,0.1273 0.0491,0.03 0.1148,0.0448 0.1973,0.0448 h 0.7696 l -1.7827,-1.8975 c -0.0862,-0.1083 -0.1788,-0.1928 -0.2769,-0.2532 0.0572,-0.0385 0.1094,-0.0813 0.1553,-0.1309 0.0468,-0.0494 0.0896,-0.1066 0.1313,-0.1701 l 1.8921,-2.3899 h -0.7597 c -0.0731,0 -0.1355,0.0125 -0.1877,0.0363 -0.053,0.0241 -0.0989,0.0669 -0.1372,0.1312 l -1.5919,1.9829 c -0.0473,0.0674 -0.0938,0.1116 -0.1397,0.1323 -0.0462,0.0207 -0.118,0.0304 -0.2138,0.0304 h -0.2437 v -2.3131 h -0.8553 v 7.0398 z"
         style="fill:#808080;fill-opacity:1;fill-rule:evenodd;stroke:none"
         id="path1495"
         inkscape:connector-curvature="0" />
      <path
         d="m 54.6727,58.3843 c 0,-1.1704 -0.1945,-2.2458 -0.5851,-3.2246 -0.3901,-0.9794 -0.9386,-1.8224 -1.6455,-2.5291 -0.7067,-0.7075 -1.5571,-1.2555 -2.5512,-1.6461 -0.9938,-0.3898 -2.0982,-0.5851 -3.3131,-0.5851 h -6.0852 v 15.9699 h 6.0852 c 1.2149,0 2.3193,-0.1953 3.3131,-0.5891 0.9941,-0.3937 1.8445,-0.9425 2.5512,-1.6455 0.7069,-0.7036 1.2554,-1.5463 1.6455,-2.5259 0.3906,-0.9788 0.5851,-2.054 0.5851,-3.2245 z m -3.0481,0 c 0,0.8762 -0.114,1.6643 -0.3459,2.3596 -0.2318,0.6962 -0.5669,1.285 -1.0046,1.7668 -0.4385,0.4828 -0.9683,0.8504 -1.5908,1.1081 -0.6222,0.2577 -1.3252,0.3869 -2.1055,0.3869 H 43.4747 V 52.763 h 3.1031 c 0.7803,0 1.4833,0.1289 2.1055,0.3866 0.6225,0.2577 1.1523,0.6293 1.5908,1.1118 0.4377,0.4818 0.7728,1.0709 1.0046,1.7671 0.2319,0.6953 0.3459,1.4797 0.3459,2.3558 z m 8.6482,-7.9849 h -2.9821 v 15.9699 h 2.9821 z M 73.9117,66.3693 V 64.0057 H 66.822 v -4.4283 h 5.5882 V 57.2907 H 66.822 v -4.5173 h 7.0897 v -2.374 H 63.8399 v 15.9699 z m 13.7834,0 V 63.9281 H 82.8794 V 50.3994 h -2.9707 v 13.5287 h -4.8153 v 2.4412 z m 12.17,0 v -2.3636 h -7.0897 v -4.4283 h 5.5879 v -2.2867 h -5.5879 v -4.5173 h 7.0897 v -2.374 H 89.7934 v 15.9699 z m 13.7835,0 v -2.4412 h -4.8158 V 50.3994 h -2.9707 v 13.5287 h -4.8152 v 2.4412 z m 8.9561,-9.7852 v -6.1847 h -2.9594 v 6.1847 l -5.8204,9.7852 h 2.6172 c 0.2577,0 0.4644,-0.0624 0.6149,-0.188 0.1511,-0.1253 0.2766,-0.2834 0.3793,-0.4748 l 2.916,-5.3342 c 0.1692,-0.3237 0.3197,-0.6262 0.449,-0.906 0.1284,-0.2795 0.2426,-0.5556 0.3458,-0.8283 0.0958,0.2798 0.2061,0.5602 0.3314,0.8397 0.1252,0.2797 0.269,0.5777 0.4308,0.8946 l 2.9047,5.3342 c 0.0805,0.1619 0.2021,0.313 0.364,0.453 0.1624,0.1397 0.3685,0.2098 0.6185,0.2098 h 2.6288 z m 10.4258,3.092 h 0.6962 c 0.2795,0 0.5113,0.0411 0.6953,0.1179 0.184,0.0774 0.3427,0.199 0.4751,0.3685 l 4.4062,5.5775 c 0.1845,0.2355 0.3793,0.4011 0.5819,0.4932 0.2024,0.0918 0.4561,0.1361 0.7654,0.1361 h 2.5625 l -5.3782,-6.6376 c -0.3169,-0.4051 -0.6443,-0.6923 -0.9833,-0.8618 0.2432,-0.0881 0.4643,-0.2097 0.659,-0.3679 0.1954,-0.1582 0.379,-0.368 0.5562,-0.6253 l 5.544,-7.4773 h -2.6175 c -0.3532,0 -0.6148,0.0516 -0.788,0.1511 -0.1727,0.0989 -0.3201,0.2427 -0.4377,0.434 l -4.5173,5.8981 c -0.1397,0.1984 -0.3016,0.3381 -0.4856,0.4195 -0.1845,0.0805 -0.449,0.1216 -0.7957,0.1216 h -0.9385 v -7.0243 h -2.9707 v 15.9699 h 2.9707 z m 25.8545,-9.2767 h -2.2972 c -0.2577,0 -0.4674,0.0661 -0.6301,0.1953 -0.1619,0.1284 -0.2835,0.2872 -0.364,0.478 l -1.1931,3.2587 h -6.6155 l -1.1922,-3.2587 c -0.0593,-0.1687 -0.1732,-0.3238 -0.3428,-0.4635 -0.1695,-0.14 -0.3792,-0.2098 -0.6292,-0.2098 h -2.3194 l 6.2839,15.9699 h 3.0263 z m -10.3377,6.0302 h 5.0916 l -1.9437,5.3121 c -0.0958,0.2356 -0.1953,0.5153 -0.2988,0.8359 -0.1026,0.3201 -0.2058,0.6659 -0.3087,1.0412 -0.1031,-0.3753 -0.2026,-0.7248 -0.3021,-1.0488 -0.099,-0.3237 -0.1985,-0.6072 -0.2943,-0.8504 z M 15.4879,26.5442 h -2.982 V 42.514 h 2.982 z m 24.1643,7.9849 c 0,-1.1704 -0.1914,-2.2533 -0.5775,-3.2505 -0.3869,-0.9978 -0.9354,-1.8632 -1.6424,-2.592 -0.7066,-0.7288 -1.557,-1.2957 -2.5511,-1.7045 -0.9939,-0.4081 -2.0982,-0.6148 -3.3135,-0.6148 -1.2075,0 -2.3079,0.2067 -3.3017,0.6148 -0.9942,0.4088 -1.8446,0.9757 -2.5552,1.7045 -0.7104,0.7288 -1.2623,1.5942 -1.6529,2.592 -0.3897,0.9972 -0.585,2.0801 -0.585,3.2505 0,1.1704 0.1953,2.2564 0.585,3.2542 0.3906,0.9978 0.9425,1.8595 1.6529,2.5883 0.7106,0.7288 1.561,1.2997 2.5552,1.7079 0.9938,0.4087 2.0942,0.6114 3.3017,0.6114 0.8102,0 1.5724,-0.0924 2.2862,-0.2801 0.7143,-0.1879 1.37,-0.4524 1.9658,-0.7951 0.5967,-0.3421 1.1339,-0.7583 1.609,-1.2478 0.475,-0.4895 0.8762,-1.038 1.2075,-1.6421 0.3314,-0.6035 0.5851,-1.2586 0.7586,-1.9655 0.1732,-0.7073 0.2574,-1.4508 0.2574,-2.2312 z m -3.0368,0 c 0,0.8762 -0.1176,1.6642 -0.3535,2.3598 -0.2355,0.696 -0.5706,1.285 -1.0051,1.7706 -0.434,0.4864 -0.9607,0.858 -1.5832,1.1157 -0.6222,0.2577 -1.3252,0.3866 -2.1059,0.3866 -0.7803,0 -1.4796,-0.1289 -2.1018,-0.3866 -0.6217,-0.2577 -1.1523,-0.6293 -1.59,-1.1157 -0.4385,-0.4856 -0.7773,-1.0746 -1.0128,-1.7706 -0.2356,-0.6956 -0.3535,-1.4836 -0.3535,-2.3598 0,-0.8762 0.1179,-1.6605 0.3535,-2.3559 0.2355,-0.6962 0.5743,-1.2849 1.0128,-1.7668 0.4377,-0.4827 0.9683,-0.8544 1.59,-1.112 0.6222,-0.2574 1.3215,-0.3867 2.1018,-0.3867 0.7807,0 1.4837,0.1293 2.1059,0.3867 0.6225,0.2576 1.1492,0.6293 1.5832,1.112 0.4345,0.4819 0.7696,1.0706 1.0051,1.7668 0.2359,0.6954 0.3535,1.4797 0.3535,2.3559 z m 19.8349,0 c 0,-1.1704 -0.1945,-2.2456 -0.5851,-3.2244 -0.3901,-0.9797 -0.9386,-1.8224 -1.6452,-2.5294 -0.707,-0.7072 -1.5574,-1.2554 -2.5512,-1.6458 -0.9941,-0.39 -2.0985,-0.5853 -3.3134,-0.5853 H 42.2702 V 42.514 h 6.0852 c 1.2149,0 2.3193,-0.1953 3.3134,-0.589 0.9938,-0.3938 1.8442,-0.9423 2.5512,-1.6453 0.7066,-0.7035 1.2551,-1.5465 1.6452,-2.5259 0.3906,-0.9791 0.5851,-2.0543 0.5851,-3.2247 z m -3.0481,0 c 0,0.8762 -0.114,1.6642 -0.3459,2.3598 -0.2318,0.696 -0.5669,1.285 -1.0046,1.7669 -0.4385,0.4824 -0.9683,0.8504 -1.5905,1.108 -0.6225,0.2577 -1.3255,0.3867 -2.1058,0.3867 H 45.2523 V 28.9077 h 3.1031 c 0.7803,0 1.4833,0.1293 2.1058,0.3867 0.6222,0.2576 1.152,0.6293 1.5905,1.112 0.4377,0.4819 0.7728,1.0706 1.0046,1.7668 0.2319,0.6954 0.3459,1.4797 0.3459,2.3559 z m 16.6331,-4.2185 c 0.1619,0 0.3056,-0.0629 0.4303,-0.1877 l 1.171,-1.2707 c -0.6483,-0.8025 -1.4431,-1.4174 -2.3893,-1.8443 -0.9462,-0.4271 -2.0838,-0.6406 -3.4093,-0.6406 -1.1854,0 -2.2492,0.2027 -3.1954,0.6078 -0.9463,0.405 -1.7555,0.9683 -2.4259,1.6894 -0.6701,0.722 -1.1818,1.5832 -1.539,2.5846 -0.3571,1.0009 -0.5371,2.0946 -0.5371,3.28 0,1.1999 0.1913,2.3012 0.5743,3.2984 0.3824,0.9978 0.9241,1.8556 1.6197,2.577 0.6959,0.7217 1.5242,1.2849 2.4888,1.6863 0.9643,0.4011 2.0322,0.6001 3.2023,0.6001 1.1636,0 2.198,-0.1913 3.1,-0.5743 0.902,-0.383 1.6673,-0.8838 2.3011,-1.5024 L 70.4327,39.234 c -0.0592,-0.0881 -0.1329,-0.1658 -0.2248,-0.2318 -0.0921,-0.0666 -0.2205,-0.0995 -0.3829,-0.0995 -0.1103,0 -0.2242,0.0329 -0.3422,0.0958 -0.1179,0.0624 -0.2469,0.1397 -0.3866,0.2319 -0.14,0.0918 -0.3019,0.1913 -0.4859,0.3016 -0.1839,0.1108 -0.3974,0.2134 -0.6406,0.3055 -0.2432,0.0919 -0.5227,0.1696 -0.8427,0.2319 -0.3206,0.0629 -0.6923,0.0924 -1.1118,0.0924 -0.7143,0 -1.3663,-0.1253 -1.9584,-0.3792 -0.5928,-0.2543 -1.105,-0.6223 -1.5322,-1.1047 -0.4269,-0.4819 -0.7577,-1.0709 -0.9938,-1.7671 -0.2356,-0.6954 -0.3535,-1.4911 -0.3535,-2.3817 0,-0.8983 0.1293,-1.6971 0.383,-2.3967 0.254,-0.6993 0.5967,-1.2883 1.0312,-1.7671 0.434,-0.4779 0.9462,-0.8427 1.535,-1.0967 0.589,-0.2543 1.2223,-0.383 1.8992,-0.383 0.4051,0 0.773,0.0221 1.1013,0.0663 0.3274,0.044 0.6293,0.114 0.9051,0.2098 0.2766,0.0955 0.538,0.2211 0.7843,0.3716 0.2469,0.1511 0.4896,0.3351 0.7325,0.5562 0.0737,0.066 0.1514,0.1216 0.2319,0.1618 0.0813,0.0403 0.1658,0.0593 0.2545,0.0593 z m 17.1068,-3.7664 h -2.982 v 6.9803 H 76.6613 V 26.5442 H 73.6792 V 42.514 h 2.9821 v -6.8692 h 7.4988 v 6.8692 h 2.982 z m 9.9842,2.397 c 0.5737,0 1.0896,0.0958 1.542,0.2865 0.453,0.1914 0.8323,0.4604 1.1416,0.8062 0.3092,0.3467 0.5485,0.7662 0.7143,1.2595 0.1655,0.4932 0.2463,1.0454 0.2463,1.6565 v 9.5641 h 2.9713 v -9.5641 c 0,-0.9499 -0.1514,-1.8261 -0.4567,-2.6325 -0.3055,-0.8062 -0.7441,-1.5015 -1.3141,-2.0869 -0.5706,-0.5859 -1.2668,-1.0417 -2.0838,-1.3694 -0.8175,-0.3282 -1.7379,-0.4938 -2.7609,-0.4938 -1.0312,0 -1.9553,0.1656 -2.7723,0.4938 -0.8169,0.3277 -1.5091,0.7835 -2.08,1.3694 -0.5707,0.5854 -1.0086,1.2807 -1.3139,2.0869 -0.3056,0.8064 -0.4606,1.6826 -0.4606,2.6325 v 9.5641 h 2.9707 v -9.5533 c 0,-0.6112 0.085,-1.1628 0.2508,-1.656 0.1656,-0.4941 0.4051,-0.9136 0.7175,-1.2631 0.3129,-0.3495 0.6959,-0.6225 1.1489,-0.8139 0.4529,-0.1907 0.9643,-0.2865 1.5389,-0.2865 z m 24.1532,5.5879 c 0,-1.1704 -0.1948,-2.2456 -0.5854,-3.2244 -0.3898,-0.9797 -0.9385,-1.8224 -1.6452,-2.5294 -0.707,-0.7072 -1.5574,-1.2554 -2.5512,-1.6458 -0.9941,-0.39 -2.0982,-0.5853 -3.3134,-0.5853 h -6.0852 V 42.514 h 6.0852 c 1.2152,0 2.3193,-0.1953 3.3134,-0.589 0.9938,-0.3938 1.8442,-0.9423 2.5512,-1.6453 0.7067,-0.7035 1.2554,-1.5465 1.6452,-2.5259 0.3906,-0.9791 0.5854,-2.0543 0.5854,-3.2247 z m -3.0484,0 c 0,0.8762 -0.114,1.6642 -0.3458,2.3598 -0.2316,0.696 -0.567,1.285 -1.0046,1.7669 -0.4386,0.4824 -0.9684,0.8504 -1.5906,1.108 -0.6224,0.2577 -1.3254,0.3867 -2.1058,0.3867 h -3.1031 V 28.9077 h 3.1031 c 0.7804,0 1.4834,0.1293 2.1058,0.3867 0.6222,0.2576 1.152,0.6293 1.5906,1.112 0.4376,0.4819 0.773,1.0706 1.0046,1.7668 0.2318,0.6954 0.3458,1.4797 0.3458,2.3559 z m 16.3125,7.9849 v -1.0936 c 0,-0.3382 -0.0958,-0.6474 -0.2871,-0.9272 l -8.1947,-11.5747 h 8.2942 v -2.3743 h -12.1488 v 1.1704 c 0,0.1474 0.0258,0.2911 0.0774,0.4272 0.0519,0.1366 0.118,0.2613 0.1993,0.3793 l 8.2165,11.6294 h -7.9741 v 2.3635 z m 16.0586,-15.9698 h -2.2972 c -0.2577,0 -0.4675,0.0663 -0.6302,0.1953 -0.1618,0.1284 -0.2834,0.2871 -0.3639,0.4782 l -1.1931,3.2584 h -6.6155 L 138.31,27.2177 c -0.0592,-0.1689 -0.1732,-0.3237 -0.3427,-0.4637 -0.1695,-0.1398 -0.3793,-0.2098 -0.6293,-0.2098 h -2.3193 l 6.2839,15.9698 h 3.0262 z m -10.3377,6.0304 h 5.0916 l -1.9437,5.3121 c -0.0958,0.2356 -0.1953,0.5151 -0.2988,0.8357 -0.1026,0.32 -0.2058,0.6659 -0.3087,1.0414 -0.1032,-0.3755 -0.2027,-0.7251 -0.3022,-1.0488 -0.0989,-0.3237 -0.1984,-0.6072 -0.2942,-0.8504 z m 13.5516,9.9394 c 0.1253,0 0.2356,-0.0037 0.3274,-0.0144 0.0921,-0.0114 0.1735,-0.0335 0.2432,-0.0669 0.07,-0.0326 0.1361,-0.0805 0.2024,-0.1429 0.066,-0.0629 0.1398,-0.1474 0.2211,-0.2509 l 8.371,-10.6903 c -0.0221,0.2577 -0.0405,0.5117 -0.055,0.7617 -0.015,0.2506 -0.0218,0.4825 -0.0218,0.6959 v 9.7078 h 2.6172 V 26.5442 h -1.5245 c -0.2355,0 -0.4303,0.0402 -0.589,0.1179 -0.1579,0.0774 -0.3124,0.2058 -0.4598,0.3898 l -8.3381,10.6356 c 0.0218,-0.2356 0.0403,-0.4675 0.0516,-0.6991 0.0108,-0.2318 0.0145,-0.4453 0.0145,-0.6369 V 26.5442 H 152.259 V 42.514 Z m 18.4442,-15.9698 h -2.9821 V 42.514 h 2.9821 z m 13.6389,15.9698 v -2.3635 h -7.0898 v -4.4283 h 5.588 v -2.2867 h -5.588 v -4.517 h 7.0898 V 26.5442 H 175.8274 V 42.514 Z"
         style="fill:#808080;fill-opacity:1;fill-rule:evenodd;stroke:none"
         id="path1497"
         inkscape:connector-curvature="0" />
    </g>
  </g>
</svg>
