<?xml version="1.0" encoding="UTF-8" standalone="no"?>
<!-- Created with Inkscape (http://www.inkscape.org/) -->

<svg
   xmlns:dc="http://purl.org/dc/elements/1.1/"
   xmlns:cc="http://creativecommons.org/ns#"
   xmlns:rdf="http://www.w3.org/1999/02/22-rdf-syntax-ns#"
   xmlns:svg="http://www.w3.org/2000/svg"
   xmlns="http://www.w3.org/2000/svg"
   xmlns:sodipodi="http://sodipodi.sourceforge.net/DTD/sodipodi-0.dtd"
   xmlns:inkscape="http://www.inkscape.org/namespaces/inkscape"
   width="34.523556mm"
   height="7.9646177mm"
   viewBox="0 0 34.523556 7.9646177"
   version="1.1"
   id="svg4496"
   inkscape:version="0.92.3 (2405546, 2018-03-11)"
   sodipodi:docname="logo_napis_white.svg">
  <defs
     id="defs4490" />
  <sodipodi:namedview
     id="base"
     pagecolor="#ffffff"
     bordercolor="#666666"
     borderopacity="1.0"
     inkscape:pageopacity="0.0"
     inkscape:pageshadow="2"
     inkscape:zoom="3.959798"
     inkscape:cx="167.04726"
     inkscape:cy="-75.872035"
     inkscape:document-units="mm"
     inkscape:current-layer="g4431"
     showgrid="false"
     fit-margin-top="0"
     fit-margin-left="0"
     fit-margin-right="0"
     fit-margin-bottom="0"
     inkscape:window-width="1920"
     inkscape:window-height="1017"
     inkscape:window-x="-8"
     inkscape:window-y="-8"
     inkscape:window-maximized="1" />
  <metadata
     id="metadata4493">
    <rdf:RDF>
      <cc:Work
         rdf:about="">
        <dc:format>image/svg+xml</dc:format>
        <dc:type
           rdf:resource="http://purl.org/dc/dcmitype/StillImage" />
        <dc:title></dc:title>
      </cc:Work>
    </rdf:RDF>
  </metadata>
  <g
     inkscape:label="Layer 1"
     inkscape:groupmode="layer"
     id="layer1"
     transform="translate(-0.27221713,-0.2167073)">
    <g
       transform="matrix(0.35277777,0,0,-0.35277777,-4.0059517,66.660714)"
       id="g4429">
      <g
         id="g4431">
        <path
           d="m 35.92576,183.83854 c 0,-0.66057 -0.109774,-1.26752 -0.330226,-1.81995 -0.22017,-0.55276 -0.52974,-1.02855 -0.92871,-1.4274 -0.398857,-0.39931 -0.878817,-0.7086 -1.439881,-0.92905 -0.560894,-0.22 -1.18421,-0.33023 -1.869892,-0.33023 h -3.434447 v 9.01331 h 3.434447 c 0.685682,0 1.308998,-0.11023 1.869892,-0.33248 0.561064,-0.22221 1.041024,-0.53195 1.439881,-0.92871 0.39897,-0.39711 0.70854,-0.87273 0.92871,-1.42561 0.220452,-0.55242 0.330226,-1.15926 0.330226,-1.81988 z m -1.720328,0 c 0,0.49452 -0.06434,0.93932 -0.195223,1.33174 -0.130827,0.39293 -0.319955,0.72525 -0.56699,0.99717 -0.247487,0.27249 -0.546502,0.47996 -0.897837,0.62541 -0.351166,0.14544 -0.747934,0.21836 -1.188331,0.21836 h -1.751369 v -6.34531 h 1.751369 c 0.440397,0 0.837165,0.0728 1.188331,0.2182 0.351335,0.14544 0.65035,0.35517 0.897837,0.62749 0.247035,0.27192 0.436163,0.60441 0.56699,0.99734 0.130883,0.39242 0.195223,0.83513 0.195223,1.3296 z m 4.880988,-4.50663 h -1.683078 v 9.01331 h 1.683078 z m 7.697706,9.01331 v -1.334 h -4.00138 v -2.4993 h 3.153944 v -1.2906 h -3.153944 v -2.54954 h 4.00138 v -1.33987 h -5.684458 v 9.01331 z m 7.779262,0 v -1.3778 h -2.71795 v -7.63551 h -1.676644 v 7.63551 H 47.45107 v 1.3778 z m 6.868668,0 v -1.334 h -4.00138 v -2.4993 h 3.153774 v -1.2906 h -3.153774 v -2.54954 h 4.00138 v -1.33987 h -5.684402 v 9.01331 z m 7.779316,0 v -1.3778 h -2.718006 v -7.63551 h -1.676644 v 7.63551 h -2.717667 v 1.3778 z m 5.054765,-5.5227 v -3.49061 h -1.670266 v 3.49061 l -3.284996,5.5227 h 1.47713 c 0.145445,0 0.262105,-0.0352 0.347046,-0.10611 0.08528,-0.0707 0.156111,-0.15995 0.214074,-0.26797 l 1.645772,-3.01059 c 0.09549,-0.18269 0.180436,-0.35342 0.253413,-0.51134 0.07247,-0.15775 0.136921,-0.31358 0.195167,-0.46749 0.05407,0.15792 0.116321,0.31618 0.18704,0.47393 0.07066,0.15786 0.151822,0.32605 0.243141,0.5049 l 1.639393,3.01059 c 0.04543,0.0914 0.114064,0.17666 0.20544,0.25567 0.09166,0.0788 0.207979,0.11841 0.349077,0.11841 h 1.483677 z m 5.884253,1.7451 h 0.392931 c 0.157748,0 0.288574,0.0232 0.392423,0.0665 0.103848,0.0437 0.193418,0.11232 0.268143,0.20798 l 2.486831,3.14791 c 0.10413,0.13291 0.214074,0.22638 0.32842,0.27836 0.114234,0.0518 0.25742,0.0768 0.431987,0.0768 h 1.446258 L 82.861962,184.599 c -0.178856,-0.22863 -0.363638,-0.39073 -0.554968,-0.48639 0.137261,-0.0497 0.262048,-0.11836 0.371936,-0.20764 0.110282,-0.0893 0.213905,-0.2077 0.313915,-0.35292 l 3.128998,-4.22014 h -1.4773 c -0.199344,0 -0.346989,0.0291 -0.444742,0.0853 -0.09747,0.0558 -0.180663,0.13698 -0.247035,0.24495 l -2.549535,3.32885 c -0.07885,0.11197 -0.170221,0.19082 -0.274069,0.23676 -0.104131,0.0454 -0.253413,0.0686 -0.449088,0.0686 H 80.15039 v -3.96447 h -1.676643 v 9.01331 h 1.676643 z m 14.592112,-5.23571 h -1.296525 c -0.145444,0 -0.263797,0.0373 -0.355624,0.11023 -0.09138,0.0725 -0.160006,0.16209 -0.20544,0.26978 l -0.673377,1.83919 H 88.47779 l -0.672869,-1.83919 c -0.03347,-0.0952 -0.09775,-0.18275 -0.193475,-0.2616 -0.09566,-0.079 -0.214018,-0.11841 -0.355116,-0.11841 h -1.309054 l 3.546592,9.01331 h 1.708024 z m -5.834531,3.40341 h 2.873666 l -1.097012,2.99811 c -0.05407,0.13297 -0.110226,0.29083 -0.16864,0.47178 -0.05791,0.18066 -0.116153,0.37583 -0.174229,0.58765 -0.05819,-0.21182 -0.114346,-0.40908 -0.170503,-0.59194 -0.05587,-0.18269 -0.112032,-0.3427 -0.166101,-0.47996 z M 13.810114,165.86819 h -1.683021 v 9.01325 h 1.683021 z m 13.638174,4.50663 c 0,-0.66057 -0.108025,-1.27175 -0.325937,-1.83456 -0.218364,-0.56315 -0.527934,-1.05158 -0.92696,-1.46291 -0.398801,-0.41133 -0.878761,-0.73129 -1.439824,-0.96201 -0.560951,-0.23033 -1.184211,-0.34699 -1.870118,-0.34699 -0.681505,0 -1.302564,0.11666 -1.863458,0.34699 -0.56112,0.23072 -1.04108,0.55068 -1.442138,0.96201 -0.400946,0.41133 -0.712434,0.89976 -0.932886,1.46291 -0.219945,0.56281 -0.330171,1.17399 -0.330171,1.83456 0,0.66056 0.110226,1.2735 0.330171,1.83665 0.220452,0.56315 0.53194,1.04949 0.932886,1.46082 0.401058,0.41133 0.881018,0.73354 1.442138,0.96393 0.560894,0.23066 1.181953,0.34507 1.863458,0.34507 0.457271,0 0.887452,-0.0522 1.290316,-0.15809 0.403146,-0.10605 0.773219,-0.25533 1.109485,-0.44875 0.336773,-0.19308 0.639966,-0.42798 0.908109,-0.70425 0.268087,-0.27627 0.494522,-0.58584 0.681505,-0.92679 0.18704,-0.34061 0.330227,-0.71035 0.428149,-1.10932 0.09775,-0.39919 0.145275,-0.81882 0.145275,-1.25927 z m -1.71395,0 c 0,0.49452 -0.06637,0.93926 -0.199513,1.33185 -0.132915,0.39282 -0.322043,0.72525 -0.567272,0.99932 -0.244947,0.27452 -0.542213,0.48425 -0.893548,0.62969 -0.351166,0.14545 -0.747934,0.2182 -1.188556,0.2182 -0.440396,0 -0.835077,-0.0727 -1.186242,-0.2182 -0.350884,-0.14544 -0.650351,-0.35517 -0.897386,-0.62969 -0.247487,-0.27407 -0.438703,-0.6065 -0.571618,-0.99932 -0.132971,-0.39259 -0.199513,-0.83733 -0.199513,-1.33185 0,-0.49452 0.06654,-0.93718 0.199513,-1.32966 0.132915,-0.39293 0.324131,-0.72519 0.571618,-0.99717 0.247035,-0.27243 0.546502,-0.48221 0.897386,-0.6276 0.351165,-0.14528 0.745846,-0.21825 1.186242,-0.21825 0.440622,0 0.83739,0.073 1.188556,0.21825 0.351335,0.14539 0.648601,0.35517 0.893548,0.6276 0.245229,0.27198 0.434357,0.60424 0.567272,0.99717 0.13314,0.39248 0.199513,0.83514 0.199513,1.32966 z m 11.194688,0 c 0,-0.66057 -0.109774,-1.2674 -0.330227,-1.81983 -0.220169,-0.55294 -0.529739,-1.02855 -0.92854,-1.42758 -0.399026,-0.39914 -0.878986,-0.70854 -1.43988,-0.92888 -0.561064,-0.22011 -1.18438,-0.33034 -1.870062,-0.33034 H 28.92587 v 9.01325 h 3.434447 c 0.685682,0 1.308998,-0.11022 1.870062,-0.33242 0.560894,-0.22226 1.040854,-0.53183 1.43988,-0.9286 0.398801,-0.39705 0.708371,-0.87283 0.92854,-1.4256 0.220453,-0.5526 0.330227,-1.15944 0.330227,-1.82 z m -1.720328,0 c 0,0.49452 -0.06434,0.93926 -0.195223,1.33185 -0.130827,0.39282 -0.319955,0.72525 -0.56699,0.99723 -0.247487,0.27226 -0.546502,0.47996 -0.897668,0.62535 -0.351335,0.14544 -0.748104,0.21825 -1.1885,0.21825 h -1.751369 v -6.34536 h 1.751369 c 0.440396,0 0.837165,0.073 1.1885,0.21825 0.351166,0.14539 0.650181,0.35517 0.897668,0.6276 0.247035,0.27198 0.436163,0.60424 0.56699,0.99717 0.130882,0.39248 0.195223,0.83514 0.195223,1.32966 z m 9.387614,-2.3809 c 0.09137,0 0.172478,-0.0355 0.242858,-0.10593 l 0.660905,-0.71718 c -0.365896,-0.45292 -0.814476,-0.79997 -1.348505,-1.04091 -0.53403,-0.24105 -1.176084,-0.36155 -1.924187,-0.36155 -0.669032,0 -1.269434,0.1144 -1.803463,0.34304 -0.534086,0.22858 -0.990793,0.5465 -1.369162,0.95349 -0.3782,0.40749 -0.667001,0.89354 -0.868602,1.45873 -0.201545,0.5649 -0.303136,1.18218 -0.303136,1.85121 0,0.67721 0.107969,1.29878 0.324132,1.86159 0.215824,0.56316 0.521556,1.04729 0.914148,1.45445 0.392761,0.40732 0.860248,0.72519 1.404662,0.95173 0.544245,0.22638 1.146961,0.3387 1.807357,0.3387 0.656729,0 1.240537,-0.10797 1.74962,-0.32414 0.509083,-0.21616 0.941014,-0.49881 1.298726,-0.84794 l -0.561063,-0.77898 c -0.03341,-0.0497 -0.07501,-0.0936 -0.126876,-0.13082 -0.05198,-0.0376 -0.124449,-0.0562 -0.216106,-0.0562 -0.06225,0 -0.126537,0.0186 -0.193136,0.0541 -0.06654,0.0352 -0.139349,0.0788 -0.218194,0.13088 -0.07902,0.0518 -0.170391,0.10797 -0.274239,0.17022 -0.103792,0.0625 -0.22429,0.12044 -0.361551,0.17242 -0.13726,0.0519 -0.295008,0.0957 -0.475614,0.13089 -0.180945,0.0355 -0.39073,0.0521 -0.627493,0.0521 -0.403146,0 -0.77113,-0.0707 -1.105308,-0.21402 -0.334572,-0.14353 -0.623655,-0.35122 -0.864764,-0.62349 -0.240939,-0.27198 -0.427641,-0.6044 -0.560894,-0.99734 -0.132971,-0.39247 -0.199513,-0.84156 -0.199513,-1.34421 0,-0.507 0.07298,-0.95783 0.216163,-1.35268 0.143356,-0.39468 0.336773,-0.72711 0.582002,-0.99734 0.244947,-0.26973 0.534029,-0.47562 0.866344,-0.61897 0.332428,-0.14353 0.689859,-0.21617 1.071896,-0.21617 0.228636,0 0.436277,0.0125 0.621567,0.0374 0.184782,0.0248 0.355173,0.0643 0.510833,0.11841 0.156111,0.0539 0.303643,0.12479 0.442653,0.20973 0.139349,0.0853 0.276327,0.18913 0.413419,0.31392 0.0416,0.0373 0.08545,0.0686 0.130882,0.0913 0.04589,0.0227 0.09358,0.0335 0.143639,0.0335 z m 9.654966,-2.12573 h -1.683021 v 3.93964 h -4.232274 v -3.93964 h -1.683078 v 9.01325 h 1.683078 v -3.87693 h 4.232274 v 3.87693 h 1.683021 z m 5.635017,1.35285 c 0.323793,0 0.614964,0.0541 0.870295,0.1617 0.25567,0.10803 0.469745,0.25985 0.644312,0.45502 0.17451,0.19567 0.30957,0.43244 0.403144,0.71085 0.09341,0.27836 0.139011,0.59002 0.139011,0.93492 v 5.39791 h 1.676982 v -5.39791 c 0,-0.53612 -0.08545,-1.03064 -0.257759,-1.48577 -0.172422,-0.45501 -0.419965,-0.84743 -0.741669,-1.17783 -0.322043,-0.33068 -0.714974,-0.58793 -1.176082,-0.77288 -0.461391,-0.18523 -0.980859,-0.2787 -1.558234,-0.2787 -0.582002,0 -1.103558,0.0935 -1.564668,0.2787 -0.461053,0.18495 -0.851726,0.4422 -1.173938,0.77288 -0.322099,0.3304 -0.569247,0.72282 -0.741557,1.17783 -0.172478,0.45513 -0.259959,0.94965 -0.259959,1.48577 v 5.39791 h 1.676643 v -5.39182 c 0,-0.34495 0.04797,-0.65627 0.14155,-0.93463 0.09346,-0.27887 0.228636,-0.51563 0.404953,-0.71289 0.176598,-0.19725 0.392761,-0.35133 0.648431,-0.45936 0.255614,-0.10763 0.544245,-0.1617 0.868545,-0.1617 z m 13.631908,3.15378 c 0,-0.66057 -0.109944,-1.2674 -0.330396,-1.81983 -0.220001,-0.55294 -0.529684,-1.02855 -0.928541,-1.42758 -0.399026,-0.39914 -0.878986,-0.70854 -1.43988,-0.92888 -0.561064,-0.22011 -1.184211,-0.33034 -1.870062,-0.33034 h -3.434447 v 9.01325 h 3.434447 c 0.685851,0 1.308998,-0.11022 1.870062,-0.33242 0.560894,-0.22226 1.040854,-0.53183 1.43988,-0.9286 0.398857,-0.39705 0.70854,-0.87283 0.928541,-1.4256 0.220452,-0.5526 0.330396,-1.15944 0.330396,-1.82 z m -1.720498,0 c 0,0.49452 -0.06434,0.93926 -0.195167,1.33185 -0.130713,0.39282 -0.320011,0.72525 -0.56699,0.99723 -0.247543,0.27226 -0.546558,0.47996 -0.897724,0.62535 -0.351278,0.14544 -0.748047,0.21825 -1.1885,0.21825 h -1.751369 v -6.34536 h 1.751369 c 0.440453,0 0.837222,0.073 1.1885,0.21825 0.351166,0.14539 0.650181,0.35517 0.897724,0.6276 0.246979,0.27198 0.436277,0.60424 0.56699,0.99717 0.130827,0.39248 0.195167,0.83514 0.195167,1.32966 z m 9.206669,4.50662 v -0.61722 c 0,-0.19087 -0.05407,-0.36538 -0.162037,-0.5233 l -4.625036,-6.53269 h 4.681193 v -1.34004 H 74.04179 v 0.66057 c 0,0.0832 0.01456,0.16429 0.04368,0.24111 0.02929,0.0771 0.0666,0.14747 0.112484,0.21407 l 4.637339,6.56356 h -4.50053 v 1.33394 z m 9.063369,-9.01325 h -1.296524 c -0.145445,0 -0.263854,0.0374 -0.355681,0.11023 -0.09132,0.0725 -0.159949,0.16204 -0.205383,0.26989 l -0.673378,1.83902 h -3.733745 l -0.672926,-1.83902 c -0.03341,-0.0953 -0.09775,-0.18269 -0.193418,-0.26171 -0.09566,-0.0789 -0.214074,-0.11841 -0.355173,-0.11841 h -1.308998 l 3.546593,9.01325 h 1.707967 z m -5.83453,3.40352 h 2.873666 l -1.097012,2.99812 c -0.05407,0.13297 -0.110226,0.29072 -0.168641,0.47166 -0.05791,0.18061 -0.116152,0.37583 -0.174228,0.58776 -0.05825,-0.21193 -0.114403,-0.40924 -0.17056,-0.59194 -0.05582,-0.18269 -0.111975,-0.3427 -0.166044,-0.47996 z m 7.648435,5.60973 c 0.07072,0 0.132971,-0.002 0.184782,-0.008 0.05198,-0.006 0.09792,-0.0189 0.137261,-0.0378 0.03951,-0.0184 0.07681,-0.0454 0.114233,-0.0806 0.03725,-0.0355 0.0789,-0.0832 0.124787,-0.14161 l 4.724538,-6.03353 c -0.01247,0.14544 -0.02286,0.2888 -0.03104,0.42989 -0.0085,0.14144 -0.0123,0.27232 -0.0123,0.39277 v 5.47901 h 1.47713 v -9.01325 h -0.860418 c -0.132914,0 -0.242858,0.0227 -0.332427,0.0666 -0.08912,0.0437 -0.176317,0.11615 -0.259509,0.22 l -4.705969,6.00266 c 0.0123,-0.13297 0.02275,-0.26386 0.02912,-0.39457 0.0061,-0.13082 0.0082,-0.25132 0.0082,-0.35946 v -5.53518 H 91.00283 v 9.01325 z m 10.409782,-9.01325 h -1.68307 v 9.01325 h 1.68307 z m 7.69771,9.01325 v -1.33394 h -4.00144 v -2.4993 h 3.15383 v -1.2906 h -3.15383 v -2.54937 h 4.00144 v -1.34004 h -5.68446 v 9.01325 z"
           style="fill:#f9f9f9;fill-opacity:1;fill-rule:evenodd;stroke:none;stroke-width:0.56439346"
           id="path4435"
           inkscape:connector-curvature="0" />
        <g
           id="g4437" />
      </g>
    </g>
  </g>
</svg>
