<?xml version="1.0" encoding="UTF-8" standalone="no"?>
<!-- Created with Inkscape (http://www.inkscape.org/) -->

<svg
   xmlns:dc="http://purl.org/dc/elements/1.1/"
   xmlns:cc="http://creativecommons.org/ns#"
   xmlns:rdf="http://www.w3.org/1999/02/22-rdf-syntax-ns#"
   xmlns:svg="http://www.w3.org/2000/svg"
   xmlns="http://www.w3.org/2000/svg"
   xmlns:sodipodi="http://sodipodi.sourceforge.net/DTD/sodipodi-0.dtd"
   xmlns:inkscape="http://www.inkscape.org/namespaces/inkscape"
   width="61.1693mm"
   height="14.111826mm"
   viewBox="0 0 61.1693 14.111826"
   version="1.1"
   id="svg767"
   inkscape:version="0.92.3 (2405546, 2018-03-11)"
   sodipodi:docname="napis_dietetyka_i_odchudzanie.svg">
  <defs
     id="defs761" />
  <sodipodi:namedview
     id="base"
     pagecolor="#ffffff"
     bordercolor="#666666"
     borderopacity="1.0"
     inkscape:pageopacity="0.0"
     inkscape:pageshadow="2"
     inkscape:zoom="0.98994949"
     inkscape:cx="80.191285"
     inkscape:cy="-178.56544"
     inkscape:document-units="mm"
     inkscape:current-layer="layer1"
     showgrid="false"
     fit-margin-top="0"
     fit-margin-left="0"
     fit-margin-right="0"
     fit-margin-bottom="0"
     inkscape:window-width="1920"
     inkscape:window-height="1017"
     inkscape:window-x="-8"
     inkscape:window-y="-8"
     inkscape:window-maximized="1" />
  <metadata
     id="metadata764">
    <rdf:RDF>
      <cc:Work
         rdf:about="">
        <dc:format>image/svg+xml</dc:format>
        <dc:type
           rdf:resource="http://purl.org/dc/dcmitype/StillImage" />
        <dc:title></dc:title>
      </cc:Work>
    </rdf:RDF>
  </metadata>
  <g
     inkscape:label="Layer 1"
     inkscape:groupmode="layer"
     id="layer1"
     transform="translate(-0.22040901,-0.03634634)">
    <path
       d="m 15.095919,2.8532823 c 0,0.412891 -0.06862,0.792268 -0.206411,1.137567 -0.137618,0.3455108 -0.331117,0.6429028 -0.580496,0.8922098 -0.249307,0.249591 -0.54931,0.442913 -0.900006,0.580708 -0.350591,0.137513 -0.740199,0.20641 -1.168788,0.20641 H 10.093495 V 0.03635234 h 2.146723 c 0.428589,0 0.818197,0.0689 1.168788,0.207821 0.350696,0.138889 0.650699,0.332493 0.900006,0.580496 0.249379,0.24821396 0.442878,0.54549996 0.580496,0.89108096 0.137795,0.345299 0.206411,0.724606 0.206411,1.137532 z m -1.075302,0 c 0,-0.309104 -0.04022,-0.587128 -0.122026,-0.832414 -0.08177,-0.245604 -0.19999,-0.45332 -0.354401,-0.623288 C 13.389497,1.2272593 13.202596,1.0975783 12.982991,1.0066673 12.763493,0.9157573 12.51549,0.87017734 12.240218,0.87017734 H 11.145513 V 4.8363521 h 1.094705 c 0.275272,0 0.523275,-0.04547 0.742773,-0.136384 0.219605,-0.09091 0.406506,-0.222003 0.561199,-0.3922188 0.154411,-0.169968 0.272627,-0.377789 0.354401,-0.623393 0.08181,-0.245287 0.122026,-0.522005 0.122026,-0.831074 z m 3.050892,2.8168948 H 16.019491 V 0.03635234 h 1.052018 z M 21.88301,0.03635234 v 0.833825 H 19.381922 V 2.4323833 h 1.971392 v 0.806697 h -1.971392 v 1.5936028 h 2.501088 v 0.837494 H 18.329903 V 0.03635234 Z m 4.862476,0 v 0.861201 H 25.046615 V 5.6701771 H 23.998618 V 0.89755334 h -1.69873 v -0.861201 z m 4.293307,0 v 0.833825 H 28.537705 V 2.4323833 h 1.971286 v 0.806697 h -1.971286 v 1.5936028 h 2.501088 v 0.837494 H 27.485721 V 0.03635234 Z m 4.862512,0 v 0.861201 H 34.202397 V 5.6701771 H 33.154401 V 0.89755334 h -1.698697 v -0.861201 z M 39.060819,3.4883533 V 5.6701771 H 38.016808 V 3.4883533 L 35.963501,0.03635234 h 0.92329 c 0.09091,0 0.16383,0.02201 0.216921,0.06632 0.05331,0.0442 0.09758,0.09998 0.13381,0.167499 l 1.0287,1.88178696 c 0.05969,0.114194 0.112782,0.220909 0.158396,0.319616 0.0453,0.0986 0.08559,0.196004 0.121991,0.292206 0.03379,-0.09871 0.07271,-0.197626 0.116912,-0.296227 0.04417,-0.09867 0.0949,-0.2038 0.151976,-0.315595 L 39.84021,0.27017134 c 0.0284,-0.05712 0.0713,-0.11042 0.12841,-0.159809 0.05729,-0.04928 0.130001,-0.07401 0.218194,-0.07401 h 0.927383 z m 3.677989,-1.090789 h 0.245605 c 0.0986,0 0.180374,-0.0145 0.245287,-0.04159 0.06491,-0.0273 0.120896,-0.0702 0.167603,-0.129999 l 1.554411,-1.96761796 c 0.06509,-0.08308 0.133808,-0.141499 0.20528,-0.17399 0.0714,-0.03238 0.160903,-0.04801 0.270017,-0.04801 h 0.903992 L 44.433694,2.3779543 c -0.111794,0.142911 -0.227295,0.244228 -0.346887,0.304024 0.0858,0.03108 0.163796,0.07398 0.232481,0.129787 0.06893,0.05581 0.133702,0.129822 0.196215,0.220592 l 1.9558,2.6378248 h -0.923395 c -0.124601,0 -0.216887,-0.0182 -0.27799,-0.05331 -0.06092,-0.03489 -0.112924,-0.08562 -0.154411,-0.153105 L 43.521906,3.3830483 c -0.04928,-0.06999 -0.1064,-0.119274 -0.17131,-0.14799 -0.06509,-0.0284 -0.158398,-0.0429 -0.280705,-0.0429 H 42.738808 V 5.6701751 H 41.690812 V 0.03635234 h 1.047996 z m 9.120894,3.2726128 h -0.810401 c -0.09091,0 -0.164888,-0.02332 -0.222287,-0.0689 -0.05711,-0.0453 -0.100012,-0.101318 -0.12841,-0.168628 L 50.277705,4.2830523 h -2.333802 l -0.420582,1.1495968 c -0.02093,0.05951 -0.0611,0.114229 -0.12093,0.163512 -0.0598,0.04939 -0.133774,0.07401 -0.22197,0.07401 h -0.818232 l 2.21682,-5.63382476 h 1.067612 z M 48.212791,3.5428573 h 1.796203 L 49.3233,1.6688663 c -0.0338,-0.08311 -0.0689,-0.181786 -0.10541,-0.294887 -0.03619,-0.112924 -0.0726,-0.234915 -0.108902,-0.367312 -0.03637,0.132397 -0.07147,0.255693 -0.106575,0.369993 -0.03492,0.114194 -0.07003,0.214207 -0.103822,0.300002 z M 1.272392,14.085762 H 0.22040901 V 8.4519711 H 1.272392 Z m 8.5246276,-2.816895 c 0,0.412891 -0.06752,0.794914 -0.203729,1.146704 -0.13649,0.352002 -0.329988,0.657295 -0.579402,0.9144 -0.249273,0.257101 -0.549275,0.457091 -0.899971,0.601311 -0.350626,0.14397 -0.740199,0.21689 -1.16893,0.21689 -0.425979,0 -0.814175,-0.0729 -1.164766,-0.21689 C 5.4294896,13.787062 5.129488,13.587072 4.878804,13.329971 4.628191,13.072866 4.433493,12.767573 4.295698,12.415571 4.15822,12.063781 4.089323,11.681758 4.089323,11.268867 c 0,-0.412891 0.0689,-0.796008 0.206375,-1.14801 0.137795,-0.3520019 0.332493,-0.6559909 0.583106,-0.9130949 0.250684,-0.257104 0.5506856,-0.458505 0.9014176,-0.602509 0.350591,-0.14418 0.738787,-0.215688 1.164766,-0.215688 0.285821,0 0.554708,0.0326 0.806521,0.09881 0.251989,0.06629 0.483305,0.159596 0.69349,0.280493 0.210503,0.120685 0.400015,0.267512 0.56762,0.440196 0.167569,0.172685 0.309104,0.366184 0.425979,0.579297 0.116911,0.2129009 0.20641,0.4440059 0.267617,0.6933849 0.0611,0.24952 0.09081,0.51181 0.09081,0.787118 z m -1.071315,0 c 0,-0.309104 -0.04149,-0.587093 -0.124707,-0.832485 -0.08308,-0.245534 -0.201295,-0.4533199 -0.354577,-0.6246289 -0.153106,-0.171591 -0.338914,-0.302683 -0.558518,-0.393594 -0.219498,-0.09091 -0.467501,-0.136384 -0.742915,-0.136384 -0.275272,0 -0.52197,0.04547 -0.741468,0.136384 -0.219322,0.09091 -0.406506,0.222003 -0.560917,0.393594 -0.154693,0.171309 -0.274214,0.3790949 -0.357293,0.6246289 -0.08311,0.245392 -0.1247066,0.523381 -0.1247066,0.832485 0,0.309104 0.04159,0.585787 0.1247066,0.831109 0.08308,0.245604 0.2026,0.453284 0.357293,0.623288 0.154411,0.170285 0.341595,0.301413 0.560917,0.392289 0.219498,0.09081 0.466196,0.136419 0.741468,0.136419 0.275414,0 0.523417,-0.04561 0.742915,-0.136419 0.219604,-0.09088 0.405412,-0.222004 0.558518,-0.392289 0.153282,-0.170004 0.271498,-0.377684 0.354577,-0.623288 0.08322,-0.245322 0.124707,-0.522005 0.124707,-0.831109 z m 6.9973114,0 c 0,0.412891 -0.06861,0.792197 -0.20641,1.137496 -0.137619,0.345617 -0.331117,0.642902 -0.58039,0.892316 -0.249414,0.249483 -0.549416,0.442873 -0.900006,0.580603 -0.350697,0.13758 -0.740305,0.20648 -1.168894,0.20648 H 10.720592 V 8.4519711 h 2.146724 c 0.428589,0 0.818197,0.0689 1.168894,0.207786 0.35059,0.138924 0.650592,0.332423 0.900006,0.580425 0.249273,0.248179 0.442771,0.545571 0.58039,0.8910819 0.137795,0.345405 0.20641,0.724712 0.20641,1.137603 z m -1.075301,0 c 0,-0.309104 -0.04022,-0.587093 -0.122026,-0.832485 -0.08177,-0.245534 -0.19999,-0.4533199 -0.354401,-0.6233239 -0.154693,-0.17018 -0.341595,-0.300002 -0.561093,-0.390878 -0.219604,-0.09091 -0.467607,-0.136419 -0.742879,-0.136419 h -1.094705 v 3.9662109 h 1.094705 c 0.275272,0 0.523275,-0.04561 0.742879,-0.136419 0.219498,-0.09088 0.4064,-0.222004 0.561093,-0.392289 0.154411,-0.170004 0.272627,-0.377684 0.354401,-0.623288 0.08181,-0.245322 0.122026,-0.522005 0.122026,-0.831109 z m 5.867787,1.488193 c 0.05711,0 0.107809,0.02219 0.151801,0.06622 l 0.413102,0.448275 c -0.228706,0.283107 -0.509093,0.500027 -0.842892,0.650627 -0.333798,0.15067 -0.735118,0.22599 -1.202725,0.22599 -0.418182,0 -0.793467,-0.0715 -1.127266,-0.21442 -0.333834,-0.14287 -0.619301,-0.34159 -0.855804,-0.595981 -0.236396,-0.254705 -0.416912,-0.558518 -0.542925,-0.911789 -0.125976,-0.353095 -0.189476,-0.738929 -0.189476,-1.157111 0,-0.423298 0.06749,-0.811813 0.2026,-1.163603 0.134902,-0.3520059 0.326002,-0.6546179 0.571394,-0.9091119 0.245498,-0.2546 0.537704,-0.453284 0.877993,-0.594889 0.340184,-0.141499 0.716915,-0.211702 1.129701,-0.211702 0.410492,0 0.775405,0.06749 1.093611,0.2026 0.318205,0.135114 0.588186,0.311785 0.811777,0.530013 l -0.350697,0.486904 c -0.02088,0.03108 -0.04688,0.05849 -0.0793,0.08177 -0.03249,0.02349 -0.07779,0.0351 -0.135079,0.0351 -0.03891,0 -0.07909,-0.01161 -0.12072,-0.0338 -0.04159,-0.02201 -0.0871,-0.04928 -0.136384,-0.08181 -0.04939,-0.03239 -0.106504,-0.06749 -0.171415,-0.106398 -0.06488,-0.03909 -0.140194,-0.07528 -0.22599,-0.107773 -0.0858,-0.03242 -0.184396,-0.05983 -0.297285,-0.08181 -0.113101,-0.02219 -0.244228,-0.0326 -0.392218,-0.0326 -0.25199,0 -0.482001,0.0442 -0.69088,0.133773 -0.209127,0.08971 -0.38982,0.219534 -0.540527,0.389714 -0.150601,0.170003 -0.267299,0.3777899 -0.35059,0.6233939 -0.08311,0.245322 -0.124707,0.526027 -0.124707,0.840211 0,0.3169 0.04561,0.598699 0.135114,0.845502 0.0896,0.246698 0.210502,0.454484 0.363784,0.623394 0.153106,0.168592 0.333798,0.297286 0.541514,0.386891 0.207786,0.08971 0.4312,0.135114 0.669996,0.135114 0.14291,0 0.272697,-0.0078 0.388514,-0.02339 0.115499,-0.01552 0.222003,-0.04022 0.319299,-0.07401 0.09758,-0.03369 0.189794,-0.078 0.276684,-0.131092 0.0871,-0.0533 0.17272,-0.118216 0.258409,-0.196215 0.026,-0.02328 0.05341,-0.0429 0.08181,-0.05708 0.02868,-0.01422 0.05849,-0.02092 0.08978,-0.02092 z m 6.034899,1.328702 h -1.051983 v -2.462495 h -2.64541 v 2.462495 H 21.800989 V 8.4519711 h 1.052019 v 2.4233019 h 2.64541 V 8.4519711 h 1.051983 z m 3.522205,-0.845608 c 0.202387,0 0.384386,-0.0338 0.543983,-0.101071 0.159808,-0.06752 0.293616,-0.162419 0.40273,-0.28441 0.10908,-0.122308 0.193498,-0.270298 0.251989,-0.444323 0.05839,-0.17399 0.08689,-0.368794 0.08689,-0.584377 V 8.4519711 h 1.048207 v 3.3740019 c 0,0.335104 -0.05341,0.644208 -0.161112,0.928688 -0.107773,0.284409 -0.262502,0.529696 -0.463585,0.736211 -0.201295,0.20669 -0.4469,0.36749 -0.735118,0.48309 -0.288396,0.11579 -0.613093,0.17421 -0.973984,0.17421 -0.363787,0 -0.689788,-0.0584 -0.978006,-0.17421 -0.288184,-0.1156 -0.532379,-0.2764 -0.73378,-0.48309 -0.201329,-0.206515 -0.355811,-0.451802 -0.463513,-0.736211 -0.107809,-0.28448 -0.162491,-0.593584 -0.162491,-0.928688 V 8.4519711 h 1.047999 v 3.3701919 c 0,0.215618 0.02998,0.41021 0.08848,0.5842 0.05842,0.174308 0.14291,0.322298 0.253117,0.445594 0.110384,0.123296 0.245499,0.219604 0.405307,0.287126 0.159774,0.06728 0.340183,0.101071 0.542891,0.101071 z m 8.52071,-1.971287 c 0,0.412891 -0.06872,0.792197 -0.206515,1.137496 -0.137512,0.345617 -0.331081,0.642902 -0.58039,0.892316 -0.249415,0.249483 -0.549415,0.442873 -0.900007,0.580603 -0.350697,0.13758 -0.740198,0.20648 -1.168895,0.20648 H 33.590786 V 8.4519711 h 2.146723 c 0.428697,0 0.818198,0.0689 1.168895,0.207786 0.350592,0.138924 0.650592,0.332423 0.900007,0.580425 0.249309,0.248179 0.442878,0.545571 0.58039,0.8910819 0.137795,0.345405 0.206515,0.724712 0.206515,1.137603 z m -1.075407,0 c 0,-0.309104 -0.04022,-0.587093 -0.121991,-0.832485 -0.0817,-0.245534 -0.200025,-0.4533199 -0.354399,-0.6233239 -0.154728,-0.17018 -0.34163,-0.300002 -0.561128,-0.390878 -0.21957,-0.09091 -0.467572,-0.136419 -0.742882,-0.136419 h -1.094703 v 3.9662109 h 1.094703 c 0.27531,0 0.523312,-0.04561 0.742882,-0.136419 0.219498,-0.09088 0.4064,-0.222004 0.561128,-0.392289 0.154374,-0.170004 0.272695,-0.377684 0.354399,-0.623288 0.08178,-0.245322 0.121991,-0.522005 0.121991,-0.831109 z m 5.754688,-2.8168959 v 0.385798 c 0,0.119309 -0.0338,0.228388 -0.101283,0.327095 l -2.890909,4.0832979 h 2.926011 v 0.8376 H 38.92059 v -0.41289 c 0,-0.052 0.0091,-0.1027 0.0273,-0.15071 0.01831,-0.0482 0.04163,-0.09218 0.07031,-0.133807 l 2.8986,-4.1025939 h -2.813084 v -0.83379 z m 5.665118,5.6337909 h -0.810403 c -0.09091,0 -0.164923,-0.0234 -0.222319,-0.0689 -0.05708,-0.0453 -0.09998,-0.10128 -0.128376,-0.1687 L 47.355718,12.698673 H 45.021916 L 44.6013,13.848162 c -0.02088,0.0596 -0.0611,0.1142 -0.120899,0.16358 -0.0598,0.0493 -0.133808,0.074 -0.222001,0.074 h -0.818198 l 2.21682,-5.6337859 h 1.067575 z m -3.646911,-2.127391 h 1.796203 L 46.401313,10.08438 c -0.0338,-0.08311 -0.0689,-0.1817159 -0.10541,-0.2948169 -0.03619,-0.112889 -0.0726,-0.234914 -0.108902,-0.367383 -0.03641,0.132469 -0.07151,0.2558 -0.106612,0.369994 -0.03489,0.114194 -0.06999,0.2142059 -0.103785,0.3000029 z m 4.780703,-3.5063999 c 0.0442,0 0.08311,0.0013 0.115499,0.0051 0.03249,0.004 0.06121,0.01182 0.0858,0.0236 0.02469,0.0115 0.04801,0.0284 0.0714,0.05041 0.02328,0.02219 0.04932,0.052 0.078,0.08851 l 2.953102,3.7712999 c -0.0078,-0.09091 -0.01429,-0.180516 -0.01939,-0.26871 -0.0053,-0.08841 -0.0077,-0.170216 -0.0077,-0.245498 V 8.4519861 h 0.92329 V 14.085777 H 53.7337 c -0.08308,0 -0.151802,-0.0142 -0.207788,-0.0416 -0.0557,-0.0273 -0.110207,-0.0726 -0.162206,-0.13751 l -2.941497,-3.752006 c 0.0077,0.08311 0.01421,0.164924 0.0182,0.246627 0.0038,0.08177 0.0051,0.157092 0.0051,0.224684 v 3.459795 H 49.522185 V 8.4519761 Z m 6.506702,5.6337909 H 55.526192 V 8.4519711 h 1.052017 z M 61.38971,8.4519711 v 0.83379 h -2.501124 v 1.5622069 h 1.971323 v 0.806696 h -1.971323 v 1.593498 h 2.501124 v 0.8376 H 57.836602 V 8.4519711 Z"
       style="fill:#23631e;fill-opacity:1;fill-rule:evenodd;stroke:none;stroke-width:0.35277775"
       id="path732"
       inkscape:connector-curvature="0" />
  </g>
</svg>
